<?xml version="1.0" encoding="UTF-8" standalone="no"?>
<!-- Created with Inkscape (http://www.inkscape.org/) -->

<svg
   width="80.558777mm"
   height="15.229951mm"
   viewBox="0 0 80.558777 15.229951"
   version="1.1"
   id="svg1"
   inkscape:version="1.3.2 (091e20e, 2023-11-25, custom)"
   sodipodi:docname="header-logo.svg"
   xmlns:inkscape="http://www.inkscape.org/namespaces/inkscape"
   xmlns:sodipodi="http://sodipodi.sourceforge.net/DTD/sodipodi-0.dtd"
   xmlns="http://www.w3.org/2000/svg"
   xmlns:svg="http://www.w3.org/2000/svg">
  <sodipodi:namedview
     id="namedview1"
     pagecolor="#ffffff"
     bordercolor="#000000"
     borderopacity="0.25"
     inkscape:showpageshadow="2"
     inkscape:pageopacity="0.0"
     inkscape:pagecheckerboard="0"
     inkscape:deskcolor="#d1d1d1"
     inkscape:document-units="mm"
     inkscape:zoom="0.72426347"
     inkscape:cx="394.88392"
     inkscape:cy="559.87913"
     inkscape:window-width="1920"
     inkscape:window-height="1009"
     inkscape:window-x="-8"
     inkscape:window-y="-8"
     inkscape:window-maximized="1"
     inkscape:current-layer="layer1" />
  <defs
     id="defs1" />
  <g
     inkscape:label="Capa 1"
     inkscape:groupmode="layer"
     id="layer1"
     transform="translate(-0.38948536,-0.43375611)">
    <g
       id="g292-8-9-3"
       transform="matrix(0.36100197,0,0,0.36100197,-115.84015,-9.1722654)"
       style="display:inline;fill:#ffffff"
       inkscape:export-filename="DDA.svg"
       inkscape:export-xdpi="96"
       inkscape:export-ydpi="96">
      <path
         id="path113-4-5-8"
         d="m 353.656,19.957 h 0.457 v 31.641 h -0.457 z"
         style="fill:#ffffff;fill-opacity:1;fill-rule:nonzero;stroke:none"
         transform="scale(1.3333333)" />
      <path
         id="path114-1-6-0"
         d="m 245.457,42.164 c 0.34,0.078 0.914,0.078 1.387,0.078 3.644,0.024 6.031,-1.969 6.031,-6.183 0,-3.801 -2.152,-5.61 -5.609,-5.61 -0.868,0 -1.469,0.078 -1.809,0.156 z m -3.984,-14.391 c 1.465,-0.261 3.379,-0.39 5.371,-0.39 3.379,0 5.586,0.551 7.261,1.836 1.836,1.359 2.985,3.562 2.985,6.707 0,3.379 -1.227,5.711 -2.906,7.152 -1.864,1.543 -4.719,2.281 -8.176,2.281 -2.074,0 -3.57,-0.132 -4.535,-0.261 z"
         style="fill:#ffffff;fill-opacity:1;fill-rule:nonzero;stroke:none"
         transform="scale(1.3333333)" />
      <path
         id="path115-7-0-1"
         d="m 270.668,41.059 c 0,1.679 0.055,3.043 0.109,4.117 h -3.457 l -0.191,-1.813 h -0.07 c -0.504,0.789 -1.707,2.102 -4.016,2.102 -2.621,0 -4.508,-1.625 -4.508,-5.586 v -7.52 h 3.985 v 6.895 c 0,1.859 0.601,2.988 2.015,2.988 1.102,0 1.758,-0.765 1.992,-1.39 0.106,-0.239 0.157,-0.528 0.157,-0.868 v -7.625 h 3.984 z"
         style="fill:#ffffff;fill-opacity:1;fill-rule:nonzero;stroke:none"
         transform="scale(1.3333333)" />
      <path
         id="path116-7-3-1"
         d="m 278.844,42.605 c 1.57,0 2.543,-1.546 2.543,-3.847 0,-1.891 -0.735,-3.832 -2.543,-3.832 -1.887,0 -2.621,1.941 -2.621,3.851 0,2.18 0.918,3.828 2.593,3.828 z m -0.078,2.86 c -3.75,0 -6.633,-2.465 -6.633,-6.606 0,-4.14 2.726,-6.785 6.871,-6.785 3.902,0 6.523,2.696 6.523,6.578 0,4.661 -3.328,6.813 -6.738,6.813 z"
         style="fill:#ffffff;fill-opacity:1;fill-rule:nonzero;stroke:none"
         transform="scale(1.3333333)" />
      <path
         id="path117-0-8-5"
         d="m 297.246,44.863 c -0.707,0.34 -2.043,0.602 -3.562,0.602 -4.145,0 -6.789,-2.543 -6.789,-6.578 0,-3.75 2.566,-6.817 7.335,-6.817 1.051,0 2.204,0.188 3.043,0.5 l -0.628,2.961 c -0.469,-0.211 -1.18,-0.394 -2.231,-0.394 -2.098,0 -3.461,1.496 -3.43,3.593 0,2.356 1.571,3.614 3.508,3.614 0.942,0 1.684,-0.153 2.281,-0.418 z"
         style="fill:#ffffff;fill-opacity:1;fill-rule:nonzero;stroke:none"
         transform="scale(1.3333333)" />
      <path
         id="path118-4-8-5-8"
         d="m 304.855,28.906 v 9.418 c 0,2.817 1.075,4.25 2.965,4.25 1.942,0 3.012,-1.359 3.012,-4.25 v -9.418 h 3.691 v 9.176 c 0,5.051 -2.55,7.457 -6.824,7.457 -4.125,0 -6.558,-2.285 -6.558,-7.504 v -9.129 z"
         style="fill:#ffffff;fill-opacity:1;fill-rule:nonzero;stroke:none"
         transform="scale(1.3333333)" />
      <path
         id="path119-3-5-5-0"
         d="m 329.156,44.805 c -0.679,0.343 -2.207,0.734 -4.199,0.734 -5.664,0 -8.578,-3.547 -8.578,-8.207 0,-5.586 3.988,-8.695 8.941,-8.695 1.918,0 3.375,0.39 4.032,0.73 l -0.754,2.942 c -0.75,-0.321 -1.793,-0.614 -3.106,-0.614 -2.941,0 -5.222,1.774 -5.222,5.418 0,3.278 1.945,5.34 5.246,5.34 1.113,0 2.355,-0.242 3.082,-0.535 z"
         style="fill:#ffffff;fill-opacity:1;fill-rule:nonzero;stroke:none"
         transform="scale(1.3333333)" />
      <path
         id="path147-0-6-7-6"
         d="m 343.078,33.105 c 0.102,0 0.188,-0.082 0.188,-0.183 0,-0.109 -0.086,-0.192 -0.188,-0.192 -0.098,0 -0.183,0.083 -0.183,0.192 0,0.101 0.085,0.183 0.183,0.183"
         style="fill:#ffffff;fill-opacity:1;fill-rule:nonzero;stroke:none"
         transform="scale(1.3333333)" />
      <path
         id="path148-2-5-4-7"
         d="m 337.234,40.273 c -0.027,0 -0.054,0.028 -0.054,0.059 0,0.027 0.027,0.051 0.054,0.051 0.032,0 0.055,-0.024 0.055,-0.051 0,-0.031 -0.023,-0.059 -0.055,-0.059"
         style="fill:#ffffff;fill-opacity:1;fill-rule:nonzero;stroke:none"
         transform="scale(1.3333333)" />
      <path
         id="path149-5-9-6-4"
         d="m 339.523,40.383 c 0.032,0 0.055,-0.024 0.055,-0.051 0,-0.031 -0.023,-0.059 -0.055,-0.059 -0.031,0 -0.054,0.028 -0.054,0.059 0,0.027 0.023,0.051 0.054,0.051"
         style="fill:#ffffff;fill-opacity:1;fill-rule:nonzero;stroke:none"
         transform="scale(1.3333333)" />
      <path
         id="path150-0-2-6-1"
         d="m 335.672,39.371 c 0.156,0.09 0.207,0.289 0.207,0.289 0,0 -0.195,0.055 -0.356,-0.035 -0.152,-0.09 -0.207,-0.289 -0.207,-0.289 0,0 0.2,-0.051 0.356,0.035 m -0.207,-0.898 c 0,0 0.191,0.015 0.297,0.14 0.105,0.125 0.09,0.321 0.09,0.321 0,0 -0.188,-0.024 -0.297,-0.149 -0.102,-0.125 -0.09,-0.312 -0.09,-0.312 m 0.254,0.523 c 0.14,0.113 0.156,0.32 0.156,0.32 0,0 -0.203,0.016 -0.344,-0.097 -0.136,-0.117 -0.156,-0.324 -0.156,-0.324 0,0 0.207,-0.016 0.344,0.101 m 0.004,-0.922 c 0.336,0 0.64,0.125 0.847,0.321 l -0.039,0.05 c -0.156,-0.093 -0.347,-0.148 -0.554,-0.148 -0.536,0 -0.887,0.359 -0.887,0.808 0,0.375 0.226,0.684 0.64,0.782 0.254,0.062 0.305,0.199 0.305,0.273 v 0.078 h -0.23 c -0.012,-0.086 -0.09,-0.136 -0.309,-0.183 -0.547,-0.114 -0.851,-0.473 -0.851,-0.977 0,-0.551 0.441,-1.004 1.078,-1.004 m 0.343,0.539 c 0.106,-0.125 0.293,-0.14 0.293,-0.14 0,0 0.016,0.187 -0.086,0.312 -0.109,0.125 -0.296,0.149 -0.296,0.149 0,0 -0.02,-0.196 0.089,-0.321 m 0.039,0.383 c 0.137,-0.117 0.344,-0.101 0.344,-0.101 0,0 -0.015,0.207 -0.156,0.324 -0.137,0.113 -0.344,0.097 -0.344,0.097 0,0 0.02,-0.207 0.156,-0.32 m 0.196,0.629 c -0.156,0.09 -0.356,0.035 -0.356,0.035 0,0 0.055,-0.199 0.211,-0.289 0.157,-0.086 0.356,-0.035 0.356,-0.035 0,0 -0.059,0.199 -0.211,0.289 m -0.125,1.758 c 0,0.117 -0.113,0.211 -0.258,0.211 -0.145,0 -0.258,-0.094 -0.258,-0.211 l 0.094,-0.942 h 0.328 z m 1.004,-2.223 h 0.644 c 0.063,0 0.114,0.051 0.114,0.113 v 0.157 c 0.035,0 0.113,0 0.144,0 v -0.157 c 0,-0.105 -0.07,-0.203 -0.172,-0.238 l -0.047,-0.019 0.043,-0.028 c 0.149,-0.105 0.328,-0.164 0.508,-0.164 0.188,0 0.371,0.063 0.531,0.176 l 0.035,0.027 -0.039,0.02 c -0.086,0.043 -0.144,0.133 -0.144,0.226 v 0.157 c 0.035,0 0.109,0 0.152,0 v -0.157 c 0,-0.062 0.043,-0.113 0.114,-0.113 h 0.64 v 0.028 c 0,0.05 -0.008,0.105 -0.027,0.16 h -0.438 v 0.07 h 0.41 c -0.058,0.117 -0.164,0.215 -0.335,0.215 h -0.168 c 0,0.035 -0.004,0.109 -0.004,0.144 h 0.172 c 0,0 0.066,-0.004 0.07,-0.004 h 0.062 v 0.254 h -2.062 v -0.254 h 0.125 l 0.066,0.004 h 0.168 c 0,-0.035 0,-0.109 -0.004,-0.144 h -0.164 c -0.172,0 -0.285,-0.098 -0.34,-0.215 h 0.403 v -0.07 h -0.43 c -0.019,-0.055 -0.027,-0.11 -0.027,-0.16 z m 1.562,1.274 c 0,0 0.012,-0.164 0.016,-0.227 h 0.121 c -0.043,0.043 -0.137,0.227 -0.137,0.227 m -0.539,-0.227 h 0.352 l -0.02,0.5 c -0.058,0.035 -0.144,0.066 -0.238,0.106 -0.02,0.007 -0.043,0.019 -0.067,0.027 z m 1.61,0.125 -0.008,0.055 c -0.008,0.023 -0.125,0.113 -0.293,0.113 -0.16,0 -0.254,-0.074 -0.324,-0.008 -0.051,0.055 -0.133,0.168 -0.196,0.293 -0.051,0.098 -0.129,0.172 -0.222,0.227 -0.094,0.054 -0.207,0.101 -0.317,0.148 -0.07,0.031 -0.14,0.059 -0.211,0.094 V 41.25 c -0.129,0.059 -0.222,0.125 -0.222,0.23 0,0.075 0.074,0.133 0.175,0.192 -0.066,0.035 -0.132,0.078 -0.195,0.125 -0.109,-0.078 -0.191,-0.18 -0.191,-0.317 0,-0.167 0.097,-0.277 0.226,-0.359 0.106,-0.058 0.223,-0.105 0.328,-0.152 0.117,-0.043 0.219,-0.086 0.293,-0.137 0.063,-0.043 0.117,-0.086 0.141,-0.144 0.223,-0.43 0.465,-0.528 0.648,-0.524 0.164,0 0.325,0.129 0.368,0.168 m -1.528,1.133 c 0,-0.051 0.043,-0.094 0.094,-0.094 0.055,0 0.098,0.043 0.098,0.094 0,0.055 -0.043,0.094 -0.098,0.094 -0.051,0 -0.094,-0.039 -0.094,-0.094 m 0.32,0.43 c -0.027,0.011 -0.054,0.023 -0.085,0.043 -0.098,0.05 -0.184,0.085 -0.27,0.152 -0.008,0.004 -0.016,0.008 -0.02,0.012 -0.003,0 -0.003,0.003 -0.007,0.007 -0.004,0 -0.004,0 -0.004,0 -0.043,0.036 -0.071,0.071 -0.071,0.11 0,0.066 0.036,0.101 0.09,0.133 -0.062,0.046 -0.109,0.093 -0.156,0.144 -0.086,-0.051 -0.144,-0.129 -0.144,-0.277 0,-0.121 0.062,-0.207 0.148,-0.278 0.004,0 0.008,-0.003 0.008,-0.003 0.09,-0.075 0.207,-0.129 0.316,-0.188 0.035,-0.016 0.07,-0.039 0.106,-0.055 0.125,-0.066 0.226,-0.121 0.226,-0.215 0,-0.082 -0.062,-0.14 -0.152,-0.191 0.074,-0.035 0.152,-0.066 0.223,-0.101 0.085,0.07 0.14,0.164 0.14,0.292 0,0.196 -0.172,0.321 -0.348,0.415 m -0.027,0.679 c -0.074,0.035 -0.121,0.063 -0.176,0.106 -0.035,0.035 -0.035,0.09 -0.007,0.121 0.035,0.035 0.085,0.043 0.125,0.008 0.031,-0.028 0.062,-0.043 0.113,-0.071 0.008,0.024 0.012,0.047 0.012,0.075 0,0.105 -0.079,0.195 -0.188,0.222 l -0.008,0.121 c 0,0.039 -0.027,0.071 -0.07,0.071 -0.039,0 -0.07,-0.032 -0.07,-0.071 l -0.004,-0.121 c -0.11,-0.027 -0.192,-0.117 -0.192,-0.222 0,-0.051 0.016,-0.098 0.039,-0.141 0.086,-0.133 0.18,-0.192 0.371,-0.32 0.008,-0.004 0.012,-0.008 0.02,-0.012 0,-0.004 0.004,-0.004 0.004,-0.004 0,-0.004 0.004,-0.004 0.004,-0.004 0,0 0.004,0 0.004,-0.004 0.004,-0.004 0.008,-0.004 0.011,-0.008 0.024,-0.027 0.047,-0.058 0.047,-0.101 0,-0.035 -0.027,-0.071 -0.066,-0.106 0.016,-0.004 0.031,-0.011 0.051,-0.023 0.054,-0.027 0.101,-0.055 0.148,-0.074 0.047,0.054 0.078,0.121 0.078,0.203 0,0.191 -0.125,0.289 -0.246,0.355 m -0.699,-2.367 H 338 c 0,0.063 0.012,0.219 0.012,0.219 0,0 -0.09,-0.176 -0.133,-0.219 m -0.109,0.578 c -0.067,-0.125 -0.145,-0.238 -0.196,-0.293 -0.07,-0.066 -0.164,0.008 -0.324,0.008 -0.168,0 -0.285,-0.09 -0.293,-0.113 0,0 -0.008,-0.055 -0.008,-0.055 0.043,-0.039 0.203,-0.168 0.367,-0.168 0.184,-0.004 0.43,0.094 0.645,0.524 0.039,0.078 0.113,0.132 0.203,0.179 -0.07,0.035 -0.152,0.071 -0.223,0.113 -0.074,-0.054 -0.132,-0.117 -0.171,-0.195 m -3.754,-2.14 0.441,0.253 c -0.008,0.059 -0.012,0.118 -0.012,0.18 0,0.586 0.336,1.039 1.008,1.18 0.055,0.008 0.09,0.015 0.113,0.027 l -0.109,1.09 v 0.008 c 0,0.23 0.207,0.414 0.461,0.414 0.258,0 0.465,-0.184 0.465,-0.414 v -0.008 l -0.117,-1.137 h -0.028 V 40.16 c 0,-0.101 -0.043,-0.215 -0.14,-0.308 0.086,0 0.191,-0.016 0.297,-0.071 0.195,-0.113 0.257,-0.34 0.269,-0.363 l 0.031,-0.125 0.317,-0.184 v 0.079 c 0,0.171 0.062,0.351 0.187,0.468 v 0.309 c -0.179,0.039 -0.328,0.16 -0.39,0.215 l -0.082,0.074 0.023,0.152 c 0,0 0.008,0.039 0.012,0.047 0.047,0.141 0.265,0.258 0.488,0.258 0.086,0 0.156,-0.016 0.207,-0.027 0,0 0.004,0 0.004,0 0.031,0.043 0.078,0.113 0.121,0.191 0.043,0.09 0.102,0.156 0.168,0.215 -0.102,0.113 -0.152,0.242 -0.152,0.39 0,0.2 0.105,0.344 0.222,0.438 -0.05,0.078 -0.093,0.176 -0.093,0.301 0,0.179 0.074,0.324 0.207,0.441 -0.02,0.047 -0.028,0.098 -0.028,0.153 0,0.144 0.074,0.277 0.196,0.359 0.011,0.144 0.128,0.266 0.277,0.266 0.148,0 0.273,-0.122 0.277,-0.266 0.125,-0.082 0.203,-0.215 0.203,-0.359 0,-0.055 -0.019,-0.106 -0.035,-0.153 0.141,-0.117 0.207,-0.262 0.207,-0.441 0,-0.125 -0.039,-0.223 -0.09,-0.301 0.114,-0.094 0.223,-0.238 0.223,-0.438 0,-0.148 -0.051,-0.277 -0.152,-0.39 0.062,-0.059 0.125,-0.125 0.168,-0.215 0.039,-0.078 0.09,-0.148 0.121,-0.191 h 0.004 c 0.05,0.011 0.121,0.027 0.207,0.027 0.218,0 0.441,-0.117 0.488,-0.258 0.004,-0.008 0.012,-0.047 0.012,-0.047 l 0.027,-0.148 -0.086,-0.078 c -0.055,-0.051 -0.172,-0.145 -0.324,-0.196 v -0.281 c 0.16,-0.117 0.246,-0.32 0.246,-0.515 v -0.2 h -0.672 c -0.199,-0.211 -0.48,-0.343 -0.789,-0.343 -0.309,0 -0.59,0.132 -0.789,0.343 h -0.406 l 0.594,-0.343 c 0.027,-0.02 0.039,-0.051 0.023,-0.075 -0.016,-0.027 -0.051,-0.039 -0.074,-0.023 l -1.121,0.652 -0.09,-0.023 c 0.051,-0.11 0.058,-0.207 0.058,-0.231 l 0.016,-0.129 0.816,-0.683 c 0.02,-0.02 0.024,-0.055 0.004,-0.078 -0.019,-0.02 -0.05,-0.024 -0.074,-0.004 l -0.82,0.687 h -0.035 c 0.007,-0.031 0.011,-0.054 0.015,-0.082 l 0.274,-0.324 -0.09,-0.086 c -0.02,-0.016 -0.039,-0.035 -0.059,-0.047 l 0.364,-0.433 c 0.019,-0.024 0.015,-0.055 -0.004,-0.075 -0.024,-0.019 -0.059,-0.015 -0.078,0.004 l -0.368,0.438 c -0.242,-0.172 -0.535,-0.262 -0.847,-0.262 -0.215,0 -0.41,0.047 -0.582,0.125 l -0.25,-0.297 c -0.02,-0.023 -0.055,-0.027 -0.075,-0.008 -0.023,0.02 -0.027,0.051 -0.007,0.075 l 0.234,0.281 c -0.113,0.062 -0.215,0.148 -0.301,0.238 l -0.285,-0.238 c -0.023,-0.02 -0.059,-0.016 -0.078,0.008 -0.02,0.019 -0.016,0.054 0.008,0.074 l 0.289,0.242 c -0.094,0.121 -0.16,0.262 -0.199,0.414 l -0.411,-0.238 c -0.027,-0.016 -0.054,-0.004 -0.074,0.023 -0.012,0.024 -0.008,0.055 0.024,0.075"
         style="fill:#ffffff;fill-opacity:1;fill-rule:nonzero;stroke:none"
         transform="scale(1.3333333)" />
      <path
         id="path151-3-0-3-1"
         d="m 344.926,40.563 c -0.27,0 -0.488,-0.219 -0.488,-0.489 h 0.976 c 0,0.27 -0.219,0.489 -0.488,0.489 m -1.039,1.46 c 0,0 -0.098,0.008 -0.18,-0.011 -0.086,-0.024 -0.215,-0.141 -0.363,-0.211 l 0.113,-1.504 c 0.02,0 0.047,0.004 0.078,0.008 0.098,0.027 0.172,0.074 0.254,0.133 0.098,0.066 0.203,0.14 0.367,0.175 0.098,0.028 0.25,0.055 0.317,0.059 -0.075,0.195 -0.586,1.351 -0.586,1.351 m -0.782,0.43 c 0,0.043 -0.031,0.074 -0.07,0.074 -0.039,0 -0.07,-0.031 -0.07,-0.074 l -0.254,-3.594 h -1.648 c -0.004,0 -0.004,0 -0.004,0 -0.106,0 -0.2,-0.082 -0.2,-0.191 0,-0.105 0.094,-0.199 0.2,-0.199 0.105,0 0.195,0.094 0.195,0.199 0,0.004 0,0.012 0,0.016 0.359,0.019 1.082,0.043 1.574,-0.325 -0.043,-0.05 -0.07,-0.117 -0.07,-0.191 0,-0.152 0.125,-0.277 0.277,-0.277 0.156,0 0.281,0.125 0.281,0.277 0,0.074 -0.027,0.141 -0.074,0.191 0.5,0.371 1.223,0.344 1.582,0.325 0,-0.004 -0.004,-0.012 -0.004,-0.016 0,-0.105 0.09,-0.199 0.2,-0.199 0.105,0 0.191,0.094 0.191,0.199 0,0.109 -0.086,0.191 -0.191,0.191 -0.004,0 -0.008,0 -0.008,0 h -1.649 z m -0.503,-0.754 c -0.055,-0.136 -0.125,-0.222 -0.247,-0.265 -0.105,-0.036 -0.234,-0.016 -0.371,-0.004 -0.152,0.011 -0.312,0.027 -0.453,-0.012 -0.097,-0.027 -0.168,-0.063 -0.215,-0.094 0.082,-0.121 0.704,-1.113 0.782,-1.23 0.054,0.027 0.132,0.062 0.238,0.086 0.094,0.023 0.187,0.027 0.273,0.023 l 0.106,1.43 c -0.047,0.008 -0.113,0.066 -0.113,0.066 m -1.454,-1.136 c -0.269,0 -0.488,-0.219 -0.488,-0.489 h 0.977 c 0,0.27 -0.223,0.489 -0.489,0.489 m 0.512,-0.68 -0.375,-0.824 h 1.246 l 0.067,0.968 c -0.075,0 -0.145,0 -0.219,-0.019 -0.164,-0.039 -0.258,-0.106 -0.258,-0.106 l -0.074,-0.054 -0.051,0.078 -0.176,0.265 c 0.004,-0.039 0.012,-0.074 0.012,-0.117 v -0.191 z m -0.512,-0.758 0.344,0.758 h -0.687 z m 3.227,1.344 c -0.055,-0.004 -0.113,-0.012 -0.176,-0.028 -0.129,-0.031 -0.215,-0.086 -0.304,-0.152 -0.09,-0.062 -0.188,-0.125 -0.317,-0.156 -0.039,-0.008 -0.074,-0.008 -0.113,-0.016 l 0.078,-1.058 h 1.246 l -0.371,0.824 h -0.172 v 0.191 c 0,0.153 0.047,0.285 0.129,0.395 m 0.891,-0.586 h -0.68 l 0.34,-0.758 z m 0.168,0 -0.371,-0.828 c 0.195,-0.028 0.343,-0.192 0.343,-0.387 0,-0.219 -0.176,-0.391 -0.386,-0.391 -0.153,0 -0.286,0.086 -0.348,0.215 -0.492,0.02 -0.887,-0.047 -1.176,-0.203 0.004,-0.039 0.012,-0.078 0.012,-0.121 0,-0.262 -0.211,-0.473 -0.473,-0.473 -0.262,0 -0.472,0.211 -0.472,0.473 0,0.043 0.007,0.082 0.015,0.121 -0.285,0.156 -0.68,0.223 -1.168,0.203 -0.066,-0.129 -0.199,-0.215 -0.351,-0.215 -0.215,0 -0.391,0.172 -0.391,0.391 0,0.199 0.148,0.367 0.344,0.391 l -0.371,0.824 h -0.176 v 0.191 c 0,0.379 0.305,0.684 0.683,0.684 0.137,0 0.262,-0.043 0.372,-0.113 l -0.399,0.601 h -0.004 v 0.016 l -0.047,0.293 1.278,0.261 c -0.016,0.063 0.105,0.141 0.187,0.168 0.059,0.012 0.149,0.012 0.203,-0.011 l 0.035,0.496 v -0.016 c 0,0.149 0.118,0.266 0.262,0.266 0.145,0 0.266,-0.117 0.266,-0.262 v -0.004 0.004 l 0.023,-0.348 0.731,0.235 0.629,-1.547 -0.004,-0.086 c 0.078,0.027 0.16,0.047 0.246,0.047 0.375,0 0.679,-0.305 0.679,-0.684 v -0.191 z"
         style="fill:#ffffff;fill-opacity:1;fill-rule:nonzero;stroke:none"
         transform="scale(1.3333333)" />
      <path
         id="path152-2-9-6-7"
         d="m 335.824,33.949 c 0.16,0 0.285,0.012 0.43,0.047 0,0 0.18,-0.031 0.351,-0.031 0.188,0 0.383,0.195 0.383,0.195 l -0.015,0.102 c 0,0 -0.09,0.113 -0.36,0.113 -0.16,0 -0.293,-0.105 -0.398,-0.141 -0.113,-0.035 -0.258,-0.054 -0.391,-0.054 -0.23,0 -0.531,0.207 -0.531,0.59 0,0.332 0.195,0.503 0.391,0.648 0.226,0.176 0.382,0.238 0.449,0.297 l -0.031,0.008 c -0.059,0.011 -0.106,0.05 -0.141,0.093 -0.414,-0.156 -0.891,-0.433 -0.891,-1.046 0,-0.532 0.407,-0.821 0.754,-0.821 m 1.617,0.61 v 0.214 c 0,0.29 -0.222,0.454 -0.421,0.594 -0.082,0.059 -0.25,0.168 -0.25,0.168 l -0.418,0.113 c -0.075,-0.105 -0.239,-0.187 -0.368,-0.281 -0.199,-0.14 -0.421,-0.304 -0.421,-0.594 v -0.214 z m -0.582,1.789 -0.636,0.175 c -0.059,0.016 -0.118,-0.019 -0.133,-0.074 -0.016,-0.058 0.019,-0.117 0.074,-0.133 l 0.641,-0.175 c 0.054,-0.02 0.117,0.015 0.133,0.074 0.015,0.055 -0.02,0.113 -0.079,0.133 m -0.714,-0.469 0.64,-0.18 c 0.055,-0.015 0.117,0.02 0.129,0.074 0.02,0.059 -0.016,0.118 -0.074,0.129 l -0.637,0.184 c -0.058,0.012 -0.117,-0.02 -0.133,-0.074 -0.015,-0.059 0.02,-0.121 0.075,-0.133 m 0.91,1.141 v 0.031 h -1.11 V 37.02 c 0,-0.11 0.274,-0.247 0.383,-0.36 l 0.297,-0.082 c 0.012,0.125 0.43,0.305 0.43,0.442 m 0,-3.946 h 1.031 v -1.191 h 0.59 v 1.191 h 1.031 v 0.59 h -1.031 v 3.387 h -0.59 v -3.387 h -1.031 z m -2.2,1.696 c 0,0.75 0.571,1.085 1.059,1.261 0,0.063 0.063,0.137 0.117,0.176 -0.027,0.023 -0.051,0.047 -0.07,0.082 -0.035,0.063 -0.043,0.133 -0.023,0.203 0.015,0.059 0.05,0.11 0.101,0.145 -0.125,0.086 -0.305,0.211 -0.305,0.414 v 0.156 h 1.536 v -0.156 c 0,-0.238 -0.25,-0.36 -0.364,-0.457 -0.023,-0.016 -0.051,-0.043 -0.066,-0.059 V 36.52 c 0,0 0.262,-0.063 0.262,-0.278 0,-0.105 -0.071,-0.191 -0.129,-0.226 0.031,-0.024 0.054,-0.047 0.074,-0.082 0.035,-0.063 0.043,-0.133 0.027,-0.2 -0.015,-0.043 -0.035,-0.082 -0.062,-0.113 0.047,-0.023 0.097,-0.055 0.133,-0.082 0.214,-0.152 0.511,-0.367 0.511,-0.766 v -0.429 h -0.48 l 0.023,-0.133 c 0.051,-0.027 0.125,-0.055 0.176,-0.055 0.066,0 0.133,0.055 0.203,0.055 0.067,0 0.09,-0.039 0.09,-0.055 0,-0.027 -0.039,-0.023 -0.078,-0.023 -0.059,0 -0.125,-0.086 -0.223,-0.086 -0.039,0 -0.101,0.016 -0.156,0.031 -0.035,-0.031 -0.168,-0.16 -0.25,-0.215 h 0.922 v 3.344 h 0.992 v -3.344 h 1.039 v -0.992 h -1.039 V 31.68 h -0.992 v 1.191 h -1.031 v 0.942 c -0.086,-0.036 -0.188,-0.063 -0.247,-0.063 -0.156,0 -0.32,0.031 -0.32,0.031 0,0 -0.25,-0.047 -0.461,-0.047 -0.465,0 -0.969,0.391 -0.969,1.036"
         style="fill:#ffffff;fill-opacity:1;fill-rule:nonzero;stroke:none"
         transform="scale(1.3333333)" />
      <path
         id="path153-8-2-4-3"
         d="m 344.551,35.027 c 0,-0.207 0.105,-0.328 0.285,-0.328 0.086,0 0.18,0.047 0.18,0.156 0,0.11 -0.078,0.125 -0.121,0.125 -0.059,0 -0.11,0.047 -0.11,0.106 0,0.059 0.051,0.109 0.11,0.109 0.195,0 0.335,-0.14 0.335,-0.34 0,-0.21 -0.171,-0.371 -0.394,-0.371 -0.215,0 -0.375,0.114 -0.453,0.297 l -0.207,-0.527 h 0.594 c 0.41,0 0.668,0.242 0.668,0.629 0,0.285 -0.231,0.515 -0.516,0.515 -0.215,0 -0.371,-0.156 -0.371,-0.371 m 0.508,2.036 -0.055,0.027 -1.969,-3.438 c 0.016,0 0.031,0.004 0.043,0.004 0.219,0 0.414,-0.097 0.547,-0.246 0.445,1.121 1.434,3.653 1.434,3.653 m -0.61,-0.29 h -0.363 v -0.898 l 0.363,0.637 z m -0.594,0 h -0.359 v -1.347 c 0,-0.063 -0.055,-0.11 -0.121,-0.11 -0.062,0 -0.113,0.047 -0.113,0.11 v 1.347 h -0.364 v -1.347 c 0,-0.063 -0.054,-0.11 -0.113,-0.11 -0.066,0 -0.117,0.047 -0.117,0.11 v 1.347 h -0.363 v -1.296 l 0.211,-0.368 h 1.136 l 0.203,0.364 z m -1.781,0 h -0.359 v -0.261 l 0.359,-0.633 z m 0.93,-2.519 h 0.156 l 0.367,0.637 h -0.89 z m -1.848,2.836 -0.058,-0.027 c 0,0 0.996,-2.532 1.437,-3.657 0.067,0.078 0.149,0.141 0.242,0.184 l 0.188,0.328 z m 0.086,-1.692 c -0.289,0 -0.519,-0.23 -0.519,-0.515 0,-0.387 0.254,-0.629 0.672,-0.629 h 0.593 l -0.207,0.527 c -0.074,-0.183 -0.238,-0.297 -0.457,-0.297 -0.226,0 -0.394,0.161 -0.394,0.371 0,0.2 0.14,0.34 0.34,0.34 0.058,0 0.101,-0.05 0.101,-0.109 0,-0.059 -0.043,-0.106 -0.101,-0.106 -0.051,0 -0.122,-0.015 -0.122,-0.125 0,-0.109 0.094,-0.156 0.176,-0.156 0.18,0 0.289,0.121 0.289,0.328 0,0.215 -0.16,0.371 -0.371,0.371 m 1.836,-3.003 c 0.289,0 0.527,0.238 0.527,0.527 0,0.285 -0.238,0.519 -0.527,0.519 -0.289,0 -0.519,-0.234 -0.519,-0.519 0,-0.289 0.23,-0.527 0.519,-0.527 m 2.578,2.488 c 0,-0.504 -0.359,-0.844 -0.886,-0.844 h -0.676 l -0.332,-0.84 c 0.031,-0.086 0.058,-0.179 0.058,-0.277 0,-0.406 -0.336,-0.734 -0.742,-0.734 -0.402,0 -0.734,0.328 -0.734,0.734 0,0.098 0.019,0.195 0.058,0.281 l -0.328,0.836 h -0.679 c -0.536,0 -0.891,0.34 -0.891,0.844 0,0.402 0.328,0.73 0.738,0.73 0.082,0 0.16,-0.015 0.231,-0.047 l -0.305,0.77 -0.258,0.66 c -0.066,0.168 0.047,0.215 0.047,0.215 l 0.152,0.078 c 0.094,0.047 0.168,-0.019 0.215,-0.101 l 0.172,-0.301 v 0.078 h 3.172 v -0.078 l 0.168,0.301 c 0.051,0.082 0.129,0.148 0.219,0.101 l 0.152,-0.078 c 0,0 0.109,-0.047 0.043,-0.215 l -0.258,-0.66 -0.301,-0.766 c 0.071,0.028 0.149,0.043 0.231,0.043 0.406,0 0.734,-0.328 0.734,-0.73"
         style="fill:#ffffff;fill-opacity:1;fill-rule:nonzero;stroke:none"
         transform="scale(1.3333333)" />
      <path
         id="path154-5-5-9-8"
         d="m 336.641,34.188 c 0.031,0 0.054,-0.024 0.054,-0.051 0,-0.032 -0.023,-0.055 -0.054,-0.055 -0.032,0 -0.055,0.023 -0.055,0.055 0,0.027 0.023,0.051 0.055,0.051"
         style="fill:#ffffff;fill-opacity:1;fill-rule:nonzero;stroke:none"
         transform="scale(1.3333333)" />
      <path
         id="path155-7-6-4-4"
         d="m 343.008,27.566 c 0.16,-0.121 0.269,-0.242 0.336,-0.32 l 0.027,-0.012 0.047,-0.007 0.004,0.019 c 0.008,0.031 0.012,0.067 0.016,0.09 l 0.003,0.016 -0.011,0.003 c -0.145,0.118 -0.305,0.266 -0.36,0.524 l -0.011,0.059 -0.024,-0.055 -0.012,-0.016 c -0.003,-0.012 -0.003,-0.09 -0.003,-0.09 0,-0.011 0,-0.023 0,-0.035 0,-0.051 -0.004,-0.101 -0.016,-0.156 L 343,27.578 Z m -0.129,0.282 c 0,0.074 0.07,0.187 0.105,0.211 0.063,0.054 0.188,0.089 0.211,0.097 0,0 0.004,0 0.004,0 -0.004,-0.035 -0.008,-0.066 -0.008,-0.101 0,-0.387 0.375,-0.625 0.375,-0.625 0,0 0.016,-0.043 0.02,-0.067 l -0.043,-0.258 c -0.004,-0.035 0,-0.046 -0.047,-0.039 l -0.219,0.047 c -0.226,0.254 -0.41,0.391 -0.437,0.414 0.051,0.125 0.039,0.235 0.039,0.321"
         style="fill:#ffffff;fill-opacity:1;fill-rule:nonzero;stroke:none"
         transform="scale(1.3333333)" />
      <path
         id="path156-8-5-9-8"
         d="m 343.688,26.922 c 0.019,0.07 0.019,0.387 0.019,0.387 0.035,-0.032 0.133,-0.129 0.133,-0.231 0,-0.16 -0.051,-0.355 -0.051,-0.355 -0.012,-0.016 -0.144,-0.18 -0.211,-0.18 -0.031,0 -0.07,0.039 -0.098,0.113 -0.023,0.063 -0.105,0.176 -0.117,0.196 v 0.023 c 0.098,0 0.301,-0.004 0.325,0.047"
         style="fill:#ffffff;fill-opacity:1;fill-rule:nonzero;stroke:none"
         transform="scale(1.3333333)" />
      <path
         id="path157-6-8-9-2"
         d="m 335.301,28.656 0.172,0.211 c 0.09,-0.07 0.187,-0.14 0.289,-0.199 0,-0.016 -0.004,-0.027 -0.004,-0.043 0,-0.035 0.004,-0.07 0.015,-0.098 0.028,-0.074 0.079,-0.132 0.149,-0.164 0.039,-0.015 0.078,-0.027 0.121,-0.027 0.082,0 0.164,0.039 0.219,0.102 0.101,-0.04 0.207,-0.063 0.312,-0.086 l -0.051,-0.266 c -0.21,0.039 -0.441,0.109 -0.652,0.207 -0.207,0.098 -0.406,0.227 -0.57,0.363"
         style="fill:#ffffff;fill-opacity:1;fill-rule:nonzero;stroke:none"
         transform="scale(1.3333333)" />
      <path
         id="path158-7-1-7-6"
         d="m 334.887,28.129 0.168,0.219 c 0.129,-0.106 0.273,-0.203 0.425,-0.289 -0.003,-0.012 -0.003,-0.024 -0.003,-0.036 0,-0.109 0.066,-0.214 0.168,-0.261 0.039,-0.02 0.074,-0.028 0.117,-0.028 0.082,0 0.16,0.036 0.215,0.094 0.152,-0.055 0.308,-0.098 0.468,-0.125 -0.007,-0.035 -0.062,-0.269 -0.062,-0.269 -0.262,0.05 -0.539,0.132 -0.789,0.254 -0.254,0.117 -0.5,0.273 -0.707,0.441"
         style="fill:#ffffff;fill-opacity:1;fill-rule:nonzero;stroke:none"
         transform="scale(1.3333333)" />
      <path
         id="path159-3-5-8-4"
         d="m 335.199,27.449 c -0.004,-0.008 -0.004,-0.015 -0.004,-0.027 0,-0.109 0.067,-0.211 0.168,-0.262 0.039,-0.015 0.078,-0.023 0.121,-0.023 0.079,0 0.153,0.031 0.207,0.086 0.2,-0.075 0.399,-0.133 0.598,-0.176 -0.027,-0.109 -0.043,-0.176 -0.051,-0.211 -0.015,-0.004 -0.031,-0.004 -0.058,-0.004 -0.067,0 -0.16,0.016 -0.274,0.043 l -0.043,0.012 c -0.062,0.015 -0.168,0.047 -0.277,0.047 -0.145,0 -0.262,-0.051 -0.348,-0.145 -0.039,-0.047 -0.054,-0.051 -0.054,-0.051 -0.008,0 -0.016,0.004 -0.032,0.012 -0.027,0.012 -0.027,0.012 -0.027,0.035 0,0.016 0,0.031 0.004,0.055 0.004,0.023 0.008,0.043 0.008,0.066 0,0.246 -0.227,0.403 -0.336,0.477 l -0.035,0.023 c -0.164,0.121 -0.219,0.196 -0.239,0.227 0.02,0.031 0.059,0.086 0.125,0.18 0.168,-0.137 0.352,-0.258 0.547,-0.364"
         style="fill:#ffffff;fill-opacity:1;fill-rule:nonzero;stroke:none"
         transform="scale(1.3333333)" />
      <path
         id="path160-8-3-1-3"
         d="m 341.551,26.914 c 0.074,0.102 0.144,0.195 0.207,0.27 -0.008,0.007 -0.145,0.109 -0.25,0.375 -0.055,-0.016 -0.067,-0.02 -0.117,-0.032 0.007,-0.05 0.007,-0.101 0.007,-0.148 0,-0.133 -0.011,-0.266 -0.035,-0.395 0.063,-0.019 0.121,-0.043 0.188,-0.07 m -0.305,0.703 c 0.121,0.031 0.34,0.09 0.34,0.09 0.07,-0.281 0.262,-0.449 0.344,-0.508 -0.063,-0.07 -0.215,-0.246 -0.336,-0.433 -0.145,0.062 -0.301,0.117 -0.364,0.14 0.016,0.067 0.047,0.239 0.047,0.473 0,0.105 -0.019,0.191 -0.031,0.238"
         style="fill:#ffffff;fill-opacity:1;fill-rule:nonzero;stroke:none"
         transform="scale(1.3333333)" />
      <path
         id="path161-1-2-0-6"
         d="m 338.953,26.984 c -0.015,0.129 -0.035,0.262 -0.035,0.391 0,0.051 0.012,0.102 0.016,0.152 -0.059,0.016 -0.067,0.016 -0.118,0.032 -0.109,-0.266 -0.242,-0.368 -0.253,-0.375 0.062,-0.075 0.136,-0.168 0.21,-0.27 0.059,0.027 0.125,0.051 0.18,0.07 m -0.562,0.215 c 0.082,0.059 0.273,0.227 0.347,0.508 0.063,-0.019 0.211,-0.059 0.336,-0.09 -0.011,-0.047 -0.027,-0.133 -0.027,-0.242 0,-0.23 0.027,-0.402 0.047,-0.469 -0.067,-0.023 -0.223,-0.078 -0.364,-0.14 -0.128,0.187 -0.277,0.363 -0.339,0.433"
         style="fill:#ffffff;fill-opacity:1;fill-rule:nonzero;stroke:none"
         transform="scale(1.3333333)" />
      <path
         id="path162-0-3-5-3"
         d="m 338.887,28.039 c 0.062,-0.016 0.133,-0.039 0.199,-0.055 0.047,0.086 0.109,0.172 0.176,0.254 -0.114,0.047 -0.25,0.094 -0.449,0.145 0.042,-0.11 0.062,-0.223 0.074,-0.344 m -0.313,0.52 c 0.461,-0.082 0.781,-0.223 0.895,-0.282 -0.074,-0.066 -0.219,-0.226 -0.321,-0.441 -0.054,0.023 -0.168,0.051 -0.386,0.109 0.008,0.301 -0.106,0.508 -0.188,0.614"
         style="fill:#ffffff;fill-opacity:1;fill-rule:nonzero;stroke:none"
         transform="scale(1.3333333)" />
      <path
         id="path163-2-7-7-3"
         d="m 340.16,28.184 c 0.028,0.035 0.059,0.07 0.09,0.101 -0.035,0.024 -0.062,0.039 -0.09,0.055 -0.027,-0.016 -0.058,-0.031 -0.09,-0.055 0.032,-0.031 0.063,-0.066 0.09,-0.101 m -0.289,0.121 c 0.059,0.039 0.176,0.117 0.289,0.175 0.117,-0.058 0.231,-0.132 0.289,-0.175 -0.066,-0.055 -0.195,-0.172 -0.289,-0.34 -0.094,0.168 -0.222,0.285 -0.289,0.34"
         style="fill:#ffffff;fill-opacity:1;fill-rule:nonzero;stroke:none"
         transform="scale(1.3333333)" />
      <path
         id="path164-9-4-5-7"
         d="m 338.625,25.832 c 0.039,0 0.074,0.09 0.074,0.121 0,0.059 -0.023,0.16 -0.101,0.309 -0.075,-0.071 -0.086,-0.141 -0.086,-0.196 0,-0.117 0.066,-0.234 0.113,-0.234 m 0.016,0.625 c 0.05,-0.082 0.179,-0.32 0.179,-0.504 0,-0.086 -0.078,-0.242 -0.195,-0.242 -0.121,0 -0.234,0.172 -0.234,0.355 0,0.211 0.175,0.348 0.25,0.391"
         style="fill:#ffffff;fill-opacity:1;fill-rule:nonzero;stroke:none"
         transform="scale(1.3333333)" />
      <path
         id="path165-6-7-5-7"
         d="m 341.234,27.984 c 0.063,0.016 0.141,0.039 0.204,0.055 0.007,0.121 0.031,0.234 0.074,0.344 -0.199,-0.051 -0.34,-0.098 -0.457,-0.145 0.07,-0.082 0.133,-0.168 0.179,-0.254 m 0.512,0.575 c -0.078,-0.106 -0.195,-0.313 -0.187,-0.614 -0.215,-0.058 -0.329,-0.086 -0.387,-0.105 -0.098,0.211 -0.25,0.371 -0.32,0.437 0.113,0.059 0.433,0.2 0.894,0.282"
         style="fill:#ffffff;fill-opacity:1;fill-rule:nonzero;stroke:none"
         transform="scale(1.3333333)" />
      <path
         id="path166-8-0-3-7"
         d="m 339.422,27.148 c 0.141,0.043 0.277,0.106 0.277,0.106 0,0 -0.144,-0.02 -0.23,0.125 -0.016,0.004 -0.035,0.008 -0.059,0.016 0,-0.008 -0.004,-0.012 -0.004,-0.016 0,-0.078 0.008,-0.156 0.016,-0.231 m 0.496,0.407 c 0,0 0.023,0.203 -0.23,0.425 -0.043,-0.042 -0.079,-0.085 -0.114,-0.132 0.309,-0.082 0.344,-0.293 0.344,-0.293 m -0.379,-0.071 c 0.016,-0.007 0.027,-0.011 0.035,-0.015 0,-0.004 0,-0.008 0,-0.012 0,-0.051 0.035,-0.102 0.09,-0.113 0.008,-0.004 0.02,-0.008 0.031,-0.008 0.051,0 0.098,0.039 0.114,0.094 0.027,0.109 -0.051,0.226 -0.196,0.277 l -0.23,0.066 c 0.066,0.133 0.164,0.258 0.297,0.379 0.226,-0.172 0.343,-0.363 0.343,-0.586 0,-0.312 -0.332,-0.457 -0.703,-0.586 -0.027,0.125 -0.039,0.258 -0.039,0.399 0,0.055 0.008,0.117 0.02,0.172 z"
         style="fill:#ffffff;fill-opacity:1;fill-rule:nonzero;stroke:none"
         transform="scale(1.3333333)" />
      <path
         id="path167-9-5-7-6"
         d="m 341.695,25.832 c 0.043,0 0.11,0.117 0.11,0.234 0,0.055 -0.012,0.125 -0.082,0.196 -0.078,-0.149 -0.098,-0.25 -0.098,-0.309 0,-0.031 0.031,-0.121 0.07,-0.121 m 0.235,0.234 c 0,-0.183 -0.114,-0.355 -0.235,-0.355 -0.121,0 -0.191,0.156 -0.191,0.242 0,0.184 0.129,0.422 0.176,0.504 0.07,-0.043 0.25,-0.18 0.25,-0.391"
         style="fill:#ffffff;fill-opacity:1;fill-rule:nonzero;stroke:none"
         transform="scale(1.3333333)" />
      <path
         id="path168-9-0-9-0"
         d="m 340.398,27.555 c 0,0 0.036,0.211 0.344,0.293 -0.035,0.047 -0.07,0.09 -0.113,0.132 -0.254,-0.222 -0.231,-0.425 -0.231,-0.425 m 0.5,-0.407 c 0.008,0.075 0.012,0.149 0.012,0.231 0,0.004 0,0.008 0,0.016 -0.023,-0.008 -0.043,-0.012 -0.058,-0.016 -0.09,-0.145 -0.235,-0.125 -0.235,-0.125 0,0 0.141,-0.063 0.281,-0.106 m -0.257,1.004 c 0.129,-0.121 0.23,-0.246 0.297,-0.379 l -0.235,-0.066 c -0.14,-0.051 -0.223,-0.168 -0.191,-0.281 0.015,-0.051 0.062,-0.086 0.113,-0.086 0.012,0 0.02,0 0.031,0.004 0.051,0.011 0.09,0.062 0.09,0.113 0,0.004 -0.004,0.008 -0.004,0.012 0.008,0.004 0.02,0.011 0.035,0.015 l 0.243,0.067 c 0.015,-0.055 0.015,-0.117 0.015,-0.172 0,-0.137 -0.012,-0.27 -0.035,-0.399 -0.371,0.129 -0.707,0.274 -0.707,0.586 0,0.223 0.117,0.414 0.348,0.586"
         style="fill:#ffffff;fill-opacity:1;fill-rule:nonzero;stroke:none"
         transform="scale(1.3333333)" />
      <path
         id="path169-0-4-2-74"
         d="m 344.727,28.445 0.046,-0.379 0.375,-0.062 -0.343,-0.168 0.05,-0.371 -0.265,0.273 -0.344,-0.156 h 0.004 l 0.18,0.328 -0.27,0.274 0.383,-0.071 z"
         style="fill:#ffffff;fill-opacity:1;fill-rule:nonzero;stroke:none"
         transform="scale(1.3333333)" />
      <path
         id="path170-4-2-2-5"
         d="m 344.141,27.426 c 0.125,-0.18 0.062,-0.469 0.062,-0.469 l 0.008,-0.004 c 0.09,0.07 0.187,0.11 0.223,0.125 0.086,0.02 0.179,0.047 0.277,0.047 0.133,0 0.238,-0.047 0.32,-0.137 0.02,-0.023 0.028,-0.031 0.032,-0.035 0.011,0.024 0.007,0.039 0.003,0.055 -0.003,0.019 -0.003,0.039 -0.003,0.055 0,0.257 0.261,0.433 0.363,0.48 0.027,0.012 0.105,0.051 0.199,0.07 v 0.008 c 0,0 -0.184,0.067 -0.297,0.305 -0.137,0.277 -0.027,0.597 -0.098,0.722 -0.085,0.157 -0.222,0.188 -0.308,0.188 -0.031,0 -0.063,-0.004 -0.098,-0.008 l -0.187,-0.051 c -0.11,-0.031 -0.254,-0.074 -0.379,-0.074 h -0.008 c -0.078,-0.09 -0.18,-0.164 -0.301,-0.25 -0.011,-0.004 -0.16,-0.113 -0.168,-0.121 -0.09,-0.07 -0.215,-0.242 -0.117,-0.418 0.109,-0.176 0.301,-0.238 0.477,-0.488 m -0.602,0.429 c -0.031,0.055 -0.039,0.114 -0.039,0.2 0,0.156 0.07,0.293 0.195,0.394 0,0 0.172,0.121 0.176,0.125 0.117,0.082 0.223,0.153 0.285,0.242 l 0.024,0.036 0.078,-0.004 c 0.105,0 0.234,0.039 0.34,0.07 l 0.199,0.047 c 0.039,0.012 0.082,0.015 0.125,0.015 0.121,0 0.23,-0.039 0.32,-0.117 0.055,-0.05 0.09,-0.097 0.117,-0.156 0.039,-0.078 0.047,-0.16 0.047,-0.258 l -0.004,-0.14 c 0,-0.067 0.004,-0.145 0.024,-0.239 0.004,-0.015 0.008,-0.035 0.012,-0.05 h 0.003 l 0.02,-0.047 c 0.055,-0.118 0.168,-0.188 0.269,-0.246 l 0.047,-0.039 -0.023,-0.2 -0.063,-0.008 c -0.097,-0.015 -0.183,-0.054 -0.207,-0.066 -0.058,-0.027 -0.277,-0.168 -0.277,-0.351 0,-0.012 0,-0.02 0,-0.036 0.004,-0.023 0.008,-0.047 0.008,-0.062 0,-0.09 -0.059,-0.117 -0.09,-0.133 -0.02,-0.008 -0.043,-0.016 -0.07,-0.016 -0.059,0 -0.098,0.036 -0.133,0.079 -0.051,0.058 -0.117,0.085 -0.211,0.085 -0.078,0 -0.16,-0.019 -0.227,-0.039 -0.031,-0.011 -0.129,-0.046 -0.214,-0.125 l -0.043,-0.039 -0.055,0.032 c -0.004,0.004 -0.047,0.031 -0.078,0.046 l -0.047,0.032 0.012,0.054 c 0.011,0.059 0.019,0.122 0.019,0.188 0,0.066 -0.012,0.125 -0.031,0.172 l -0.027,0.051 c -0.008,0.007 -0.016,0.023 -0.028,0.035 -0.066,0.097 -0.152,0.164 -0.23,0.226 -0.098,0.075 -0.18,0.141 -0.223,0.242"
         style="fill:#ffffff;fill-opacity:1;fill-rule:nonzero;stroke:none"
         transform="scale(1.3333333)" />
      <path
         id="path171-9-9-8-0"
         d="m 337.813,28.254 c 0.105,0 0.093,-0.113 0.132,-0.156 0.043,-0.039 0.157,-0.028 0.157,-0.133 0,-0.106 -0.118,-0.094 -0.157,-0.133 -0.035,-0.039 -0.019,-0.156 -0.132,-0.156 -0.067,0 -0.102,0.051 -0.102,0.129 v 0.316 c 0,0.078 0.035,0.133 0.102,0.133"
         style="fill:#ffffff;fill-opacity:1;fill-rule:nonzero;stroke:none"
         transform="scale(1.3333333)" />
      <path
         id="path172-1-5-1-0"
         d="m 334.324,29.383 c -0.058,-0.047 -0.129,-0.063 -0.172,-0.004 -0.062,0.082 0.036,0.141 0.039,0.199 0.004,0.059 -0.082,0.137 0,0.207 0.082,0.067 0.153,-0.031 0.207,-0.035 0.055,-0.004 0.133,0.086 0.204,-0.004 0.046,-0.051 0.027,-0.113 -0.032,-0.164 z"
         style="fill:#ffffff;fill-opacity:1;fill-rule:nonzero;stroke:none"
         transform="scale(1.3333333)" />
      <path
         id="path173-7-5-4-0"
         d="m 340.211,46.188 c -4.789,0.027 -8.711,-3.844 -8.731,-8.633 -0.015,-1.914 0.602,-3.692 1.649,-5.141 0.062,-0.019 0.121,-0.059 0.172,-0.101 0.066,-0.063 0.14,-0.172 0.164,-0.336 1.586,-1.907 3.973,-3.141 6.644,-3.157 2.707,-0.015 5.141,1.219 6.746,3.157 0.043,0.328 0.274,0.418 0.336,0.437 1.028,1.422 1.645,3.156 1.657,5.039 0.027,4.789 -3.848,8.703 -8.637,8.735 m -6.566,-14.735 c -0.129,0.133 -0.122,0.137 -0.243,0.281 -0.011,-0.015 -0.015,-0.031 -0.027,-0.043 -0.047,-0.043 -0.09,-0.066 -0.145,-0.066 -0.035,0 0.02,-0.027 0.075,-0.051 0.05,-0.015 0.34,-0.121 0.34,-0.121 m -1.086,0.387 c 0,-0.192 0.113,-0.36 0.339,-0.496 0.082,-0.055 0.133,-0.074 0.215,-0.11 l 0.34,-0.148 0.141,-0.074 -0.082,0.004 c -0.532,0 -0.782,-0.133 -0.782,-0.418 0,-0.055 0.047,-0.118 0.122,-0.118 0.062,0 0.117,0.055 0.117,0.118 0,0.039 0.008,0.066 0.031,0.086 0.098,0.097 0.406,0.097 0.512,0.097 0.297,0 0.578,-0.129 0.769,-0.246 -0.183,-0.015 -0.375,-0.094 -0.535,-0.226 -0.207,-0.168 -0.324,-0.391 -0.344,-0.641 -0.023,-0.238 0.051,-0.484 0.188,-0.656 0.363,-0.43 0.844,-0.438 0.867,-0.438 0.063,0.004 0.113,0.055 0.113,0.121 0,0.067 -0.05,0.118 -0.113,0.118 -0.008,0 -0.391,0.007 -0.687,0.351 -0.075,0.094 -0.153,0.27 -0.133,0.481 0.015,0.187 0.105,0.351 0.261,0.48 0.047,0.043 0.231,0.176 0.454,0.176 0.187,0 0.359,-0.094 0.515,-0.274 L 334.898,30 c 0.176,-0.191 0.415,-0.484 0.473,-0.566 0.059,-0.079 0.254,0.054 0.172,0.16 -0.184,0.23 -0.414,0.531 -0.77,0.871 -0.043,0.043 -0.043,0.043 -0.046,0.043 -0.231,0.219 -0.485,0.41 -0.743,0.57 -0.32,0.164 -0.406,0.211 -0.433,0.223 l -0.344,0.152 c -0.086,0.035 -0.121,0.051 -0.187,0.09 -0.161,0.102 -0.231,0.203 -0.223,0.32 0.004,0.094 0.082,0.176 0.137,0.176 0.113,0 0.129,-0.098 0.129,-0.156 0,-0.031 0.015,-0.063 0.035,-0.082 0.023,-0.024 0.05,-0.035 0.086,-0.035 0.062,0 0.113,0.054 0.113,0.117 0,0.269 -0.188,0.39 -0.375,0.39 -0.172,0 -0.363,-0.183 -0.363,-0.433 m 0.851,-3.309 v -0.215 h 0.094 v -0.195 h -0.274 v 0.195 h 0.09 v 0.215 h -0.363 v -0.215 h 0.094 v -0.195 h -0.094 v -0.308 h 1.188 c 0.16,0.105 0.183,0.175 0.183,0.308 h -0.648 v 0.195 h 0.093 v 0.215 z m 1.153,-0.047 c -0.036,-0.015 -0.067,-0.031 -0.106,-0.031 -0.016,0 -0.25,0.008 -0.519,0.141 v -0.313 h 0.472 c 0.02,0.028 0.09,0.114 0.153,0.203 m 0.203,0.942 c 0.082,0.062 0.125,0.156 0.125,0.242 0,0.242 -0.161,0.383 -0.325,0.383 -0.043,0 -0.121,-0.02 -0.148,-0.024 -0.023,0.012 -0.098,0.047 -0.168,0.047 -0.195,0 -0.355,-0.156 -0.355,-0.34 0,-0.05 0.011,-0.109 0.019,-0.132 -0.012,-0.02 -0.047,-0.094 -0.051,-0.141 -0.008,-0.098 0.02,-0.191 0.082,-0.266 0.063,-0.07 0.153,-0.113 0.243,-0.125 0.007,0 0.023,0 0.031,0 0.086,0 0.164,0.028 0.23,0.082 0.008,0.008 0.016,0.02 0.024,0.032 l 0.347,-0.426 c 0,0 0.094,0.012 0.164,0.09 0.055,0.062 0.063,0.179 0.063,0.179 l -0.309,0.375 c 0.012,0.008 0.024,0.016 0.028,0.024 m 0.195,-0.004 c 0.023,-0.031 0.086,-0.109 0.176,-0.219 0.062,0.078 0.09,0.11 0.133,0.156 -0.071,0.09 -0.149,0.192 -0.235,0.297 -0.008,-0.097 -0.047,-0.191 -0.074,-0.234 m -0.379,-2.266 0.039,-0.031 c 0.086,-0.055 0.211,-0.145 0.199,-0.238 -0.023,-0.129 -0.023,-0.317 0.2,-0.418 0.226,-0.11 0.367,0.011 0.453,0.113 0.023,0.031 0.062,0.043 0.105,0.043 0.137,0 0.348,-0.105 0.61,-0.105 0.167,0 0.281,0.05 0.312,0.156 0.215,0.605 0.438,1.992 0.438,1.992 0,0 -0.387,0.02 -0.793,0.207 -0.352,0.164 -0.668,0.473 -0.668,0.473 -0.004,0 -0.918,-1.067 -1.25,-1.614 -0.094,-0.148 0.046,-0.351 0.355,-0.578 m 2.793,-1.406 0.238,0.199 -0.062,0.071 0.152,0.128 0.063,-0.074 0.164,0.145 -0.239,0.277 -0.16,-0.141 0.059,-0.074 -0.152,-0.125 -0.176,0.215 0.148,0.129 0.063,-0.074 0.164,0.133 -0.235,0.281 -0.16,-0.137 0.059,-0.07 -0.153,-0.129 -0.402,0.48 c -0.004,-0.004 -0.004,-0.007 -0.008,-0.011 -0.097,-0.082 -0.14,-0.145 -0.129,-0.305 z m 0.672,0.563 c 0,0 0.09,0.242 0.297,0.367 -0.082,0.109 -0.153,0.203 -0.203,0.261 -0.09,-0.027 -0.18,-0.046 -0.266,-0.046 -0.129,0 -0.242,0.019 -0.348,0.046 z m -0.594,2.21 c -0.137,0 -0.265,-0.003 -0.375,-0.007 -0.008,-0.063 -0.012,-0.102 -0.027,-0.2 h 0.277 c 0.016,0.059 0.055,0.141 0.125,0.207 m -0.598,-1.132 -0.05,-0.223 c 0.14,-0.172 0.25,-0.301 0.304,-0.367 0.004,0.008 0.145,0.125 0.235,0.203 -0.27,0.113 -0.461,0.301 -0.489,0.387 m 0.024,0.414 0.004,-0.016 0.57,0.004 c -0.004,-0.016 -0.004,-0.027 -0.004,-0.035 0,-0.195 0.156,-0.356 0.356,-0.356 0.226,0 0.312,0.192 0.328,0.235 0.047,0.015 0.234,0.097 0.234,0.328 0,0.23 -0.187,0.312 -0.234,0.328 -0.016,0.047 -0.102,0.234 -0.328,0.234 -0.219,0 -0.356,-0.183 -0.356,-0.355 0,-0.008 0,-0.02 0.004,-0.031 h -0.469 l -0.004,-0.012 c -0.007,-0.008 -0.011,-0.012 -0.019,-0.02 -0.098,-0.097 -0.125,-0.187 -0.082,-0.304 m -0.328,1.418 c 0,-0.012 -0.012,-0.059 -0.012,-0.075 0,-0.05 0.016,-0.128 0.059,-0.156 0.054,-0.008 0.257,-0.004 0.394,0.004 0.145,0.008 0.328,0.012 0.531,0.012 -0.378,0.117 -0.746,0.262 -1.105,0.426 0.078,-0.043 0.133,-0.125 0.133,-0.211 m -0.153,0.222 c -0.363,0.172 -0.71,0.364 -1.043,0.578 0.137,-0.16 0.247,-0.304 0.336,-0.425 0.082,-0.102 0.207,-0.262 0.254,-0.297 0.059,-0.028 0.157,0.058 0.18,0.086 0.07,0.074 0.176,0.093 0.273,0.058 m -0.015,-0.234 c 0.008,0.035 -0.012,0.07 -0.043,0.086 -0.027,0.016 -0.074,0.008 -0.098,-0.02 -0.004,-0.007 -0.105,-0.125 -0.238,-0.136 0.109,-0.082 0.301,-0.176 0.434,-0.207 -0.075,0.113 -0.055,0.277 -0.055,0.277 m 2.242,-3.734 c 0.246,0 0.43,0.25 0.43,0.476 0,0.238 -0.145,0.512 -0.2,0.606 0.094,0.039 0.2,0.078 0.301,0.117 0.035,-0.106 0.114,-0.297 0.246,-0.5 l 0.028,-0.039 0.031,0.035 c 0.039,0.039 0.074,0.078 0.113,0.109 l 0.024,0.024 -0.016,0.027 c -0.125,0.199 -0.184,0.356 -0.203,0.418 0.301,0.105 0.621,0.234 0.781,0.469 0.164,-0.246 0.477,-0.36 0.781,-0.469 -0.039,-0.117 -0.117,-0.281 -0.203,-0.414 l -0.015,-0.027 0.023,-0.02 c 0.039,-0.035 0.078,-0.074 0.113,-0.113 l 0.036,-0.035 0.023,0.039 c 0.141,0.207 0.219,0.414 0.246,0.496 0.113,-0.039 0.242,-0.086 0.301,-0.117 -0.055,-0.098 -0.199,-0.371 -0.199,-0.606 0,-0.226 0.183,-0.476 0.429,-0.476 0.254,0 0.469,0.269 0.469,0.589 0,0.247 -0.113,0.434 -0.359,0.59 0.144,0.207 0.289,0.371 0.336,0.426 0.015,-0.004 0.238,-0.066 0.238,-0.066 l -0.137,0.113 c -0.172,0.129 -0.199,0.25 -0.199,0.25 h -0.023 c -0.086,0 -0.161,0.094 -0.161,0.195 0,0.008 0.008,0.024 0.012,0.039 l 0.004,0.012 -0.008,0.016 c -0.047,0.101 -0.074,0.211 -0.074,0.324 0,0.047 0.012,0.43 0.344,0.598 l 0.015,0.007 0.016,0.09 c 0.02,0.02 0.078,0.07 0.078,0.07 l 0.043,0.09 0.051,0.047 -0.11,-0.012 c -0.984,-0.082 -1.464,-0.347 -1.574,-0.41 -0.101,0.071 -0.398,0.278 -0.5,0.278 -0.105,0 -0.398,-0.207 -0.496,-0.278 -0.133,0.071 -0.875,0.442 -2.012,0.442 -0.183,0 -0.406,-0.008 -0.57,-0.012 -0.058,0 -0.074,-0.23 0.004,-0.227 0.078,0 0.465,0 0.652,0 h 0.059 c 0.543,0 0.738,-0.351 0.738,-0.679 0,-0.203 -0.07,-0.379 -0.203,-0.508 -0.148,-0.152 -0.34,-0.207 -0.453,-0.207 -0.457,0 -0.703,0.293 -0.707,0.297 -0.02,0.023 -0.055,0.043 -0.09,0.043 -0.027,0 -0.055,-0.012 -0.074,-0.031 -0.024,-0.02 -0.039,-0.047 -0.043,-0.079 -0.004,-0.031 0.008,-0.062 0.027,-0.086 0.012,-0.015 0.321,-0.378 0.887,-0.378 0.133,0 0.254,0.039 0.305,0.062 0.144,-0.164 0.281,-0.352 0.332,-0.426 -0.098,-0.062 -0.36,-0.246 -0.36,-0.59 0,-0.32 0.219,-0.589 0.473,-0.589 m 0.652,0.66 c -0.074,0.125 -0.144,0.25 -0.195,0.379 -0.019,-0.004 -0.035,-0.012 -0.055,-0.02 0.086,-0.183 0.137,-0.344 0.149,-0.484 0.031,0.043 0.066,0.086 0.101,0.125 m 1.407,0.34 c 0.039,0.07 0.074,0.132 0.097,0.199 -0.226,0.086 -0.457,0.195 -0.621,0.355 -0.164,-0.16 -0.394,-0.269 -0.625,-0.355 0.031,-0.067 0.063,-0.133 0.102,-0.203 0.172,0.121 0.351,0.199 0.527,0.199 0.172,0 0.352,-0.078 0.52,-0.195 m 0.609,0.019 c -0.016,0.008 -0.035,0.016 -0.051,0.02 -0.051,-0.129 -0.121,-0.254 -0.199,-0.371 0.035,-0.04 0.074,-0.082 0.105,-0.125 0.012,0.14 0.059,0.296 0.145,0.476 m -1.129,-0.051 c -0.348,0 -0.809,-0.465 -1.055,-0.984 h 0.309 c 0.195,0.375 0.508,0.699 0.746,0.699 0.238,0 0.551,-0.324 0.746,-0.699 h 0.309 c -0.242,0.519 -0.707,0.984 -1.055,0.984 m -1.539,-1.379 h 3.035 v 0.235 h -3.035 z m 1.078,-0.992 c 0.137,0 0.246,0.028 0.336,0.071 v -0.879 h -0.43 v -0.27 h 0.43 v -0.437 h 0.293 v 0.437 h 0.43 v 0.27 h -0.43 v 0.863 c 0.082,-0.035 0.176,-0.055 0.293,-0.055 0.445,0 0.758,0.336 0.758,0.821 0,0.003 0,0.007 0,0.011 h -0.289 c -0.008,-0.269 -0.172,-0.551 -0.516,-0.551 -0.203,0 -0.336,0.133 -0.414,0.247 -0.07,-0.114 -0.203,-0.247 -0.414,-0.247 -0.371,0 -0.508,0.282 -0.52,0.551 h -0.281 c 0,-0.004 0,-0.008 0,-0.011 0,-0.489 0.305,-0.821 0.754,-0.821 m 2.813,2.336 c 0.039,0.094 0.109,0.172 0.175,0.235 0,0.003 0,0.003 0,0.011 -0.023,0.035 -0.168,0.164 -0.261,0.242 -0.094,0.004 -0.188,0.028 -0.246,0.043 -0.055,-0.058 -0.129,-0.152 -0.207,-0.261 0.261,-0.207 0.308,-0.403 0.308,-0.403 0,0 0.094,0.11 0.231,0.133 m -0.438,1.965 c -0.14,-0.137 -0.16,-0.332 -0.16,-0.41 0,-0.063 0.008,-0.117 0.023,-0.172 0.039,0.027 0.09,0.043 0.141,0.047 0.016,0.015 0.059,0.055 0.059,0.055 -0.036,0.082 -0.114,0.175 -0.114,0.175 l -0.031,0.137 c 0,0 0.063,0.098 0.082,0.168 m 1.25,0.621 c 0.113,-0.004 0.266,-0.012 0.344,-0.008 0.035,0.028 0.07,0.047 0.094,0.071 0.011,0.027 0.007,0.089 0.007,0.168 0,0.074 0.047,0.164 0.122,0.203 -0.356,-0.164 -0.719,-0.305 -1.09,-0.422 0.195,0 0.379,-0.004 0.523,-0.012 m -0.738,-0.473 c 0,0 -0.031,-0.039 -0.047,-0.062 -0.008,-0.078 -0.016,-0.148 -0.027,-0.219 0,0 0.004,-0.031 0.004,-0.07 0.046,-0.055 0.097,-0.117 0.097,-0.117 l 0.004,0.07 c 0.012,0.012 0.063,0.07 0.063,0.07 0,0 0.023,0.008 0.046,0.012 0.004,0 0.032,0.012 0.047,0.023 l 0.172,0.157 c 0,0 0.102,0.019 0.145,0.027 0,0 0.004,0 0.008,0.004 0.015,0.035 0.039,0.066 0.058,0.102 -0.164,0.003 -0.359,0.007 -0.57,0.003 m 0.078,0.309 c 0.012,-0.023 0.02,-0.047 0.02,-0.07 0,-0.02 -0.004,-0.039 -0.012,-0.063 l -0.004,-0.004 v -0.047 c 0,0 0.496,-0.003 0.629,-0.003 0.133,0 0.176,0.222 0.047,0.222 l -0.7,0.02 z m 2.453,0.613 c 0.055,0.016 0.106,0.016 0.152,0.012 0.008,0.02 0.016,0.023 0.024,0.043 0,0.059 0.004,0.141 0.066,0.203 l 0.137,0.051 c 0,0 -0.031,0.043 -0.062,0.078 -0.118,-0.133 -0.227,-0.266 -0.317,-0.387 m -0.156,0.575 c -0.328,-0.211 -0.672,-0.403 -1.027,-0.575 0.089,0.032 0.203,-0.015 0.257,-0.058 0.059,-0.047 0.082,-0.071 0.106,-0.078 0.035,0.004 0.074,0.011 0.109,0.027 0.055,0.055 0.153,0.18 0.219,0.262 0.09,0.125 0.203,0.269 0.336,0.422 m -0.25,-0.508 c -0.106,-0.137 0.144,-0.199 0.187,-0.145 0.125,0.16 0.274,0.356 0.438,0.543 l 0.055,0.063 h -0.082 c -0.059,0 -0.118,0.035 -0.137,0.043 l -0.028,0.015 -0.027,-0.015 c -0.156,-0.184 -0.297,-0.36 -0.406,-0.504 m -2.274,-3.485 0.125,0.028 -0.031,-0.102 0.098,0.051 0.008,-0.121 0.078,0.074 0.027,-0.113 0.074,0.179 c 0.051,0.012 0.094,0.036 0.137,0.067 0.027,0 0.129,0.004 0.145,0.058 0.023,0.09 -0.172,0.129 -0.172,0.157 0,0.011 0.054,0.043 0.097,0.082 0.082,0.058 0.219,0.199 0.239,0.238 0.019,-0.031 0.082,-0.105 0.101,-0.121 0.035,-0.031 0.125,-0.145 0.16,-0.156 0.063,-0.028 0.145,0.082 0.2,0.113 0.089,0.055 0.152,0.144 0.168,0.16 l 0.347,-0.207 c 0,0 0.133,0.289 0.461,0.289 0.051,0 0.098,-0.008 0.117,-0.035 0.129,-0.152 0.274,-0.191 0.438,-0.113 0.16,0.078 0.222,0.211 0.191,0.41 -0.011,0.086 0.141,0.207 0.207,0.238 0.086,0.039 0.199,0.074 0.262,0.063 l 0.109,-0.016 0.082,0.527 c -0.418,0.227 -0.441,0.223 -0.441,0.661 0,0.136 0.008,0.289 -0.063,0.437 -0.039,0.078 -0.093,0.156 -0.179,0.23 -0.008,0.008 -0.016,0.012 -0.024,0.02 0,0.016 -0.007,0.031 -0.007,0.047 l 0.109,0.195 c 0.027,-0.019 0.223,-0.168 0.25,-0.219 0.008,-0.023 -0.012,-0.277 -0.012,-0.277 0,0 0.055,-0.098 0.055,-0.426 0,-0.304 0.019,-0.359 0.125,-0.433 0.055,-0.035 0.168,-0.117 0.25,-0.157 -0.02,0.118 -0.184,0.176 -0.184,0.231 0,0.059 0.028,0.09 0.051,0.109 l 0.031,-0.027 c 0.039,-0.035 0.086,-0.035 0.102,-0.031 0.058,-0.035 0.113,-0.094 0.183,-0.098 0.071,-0.004 0.149,0.031 0.18,0.043 l 0.031,-0.039 c -0.019,-0.023 -0.054,-0.082 -0.058,-0.125 -0.004,-0.051 -0.039,-0.094 -0.133,-0.063 l 0.031,-0.062 c 0.024,-0.059 0.102,-0.055 0.121,-0.051 0.039,-0.012 0.071,-0.023 0.11,-0.008 l 0.101,-0.121 0.016,0.102 h 0.074 l -0.015,0.082 0.078,0.012 -0.02,0.066 0.078,0.043 -0.144,0.047 c 0.004,0.078 -0.012,0.168 -0.121,0.254 0.004,0.011 0.011,0.027 0.011,0.054 0.008,0.125 -0.113,0.172 -0.148,0.18 l -0.016,0.129 c 0.02,0.012 0.071,0.043 0.102,0.043 0.281,-0.012 0.254,-0.469 0.437,-0.469 0.172,0.008 0.184,0.168 0.196,0.293 0.023,0.219 0.089,0.371 -0.004,0.778 -0.059,0.25 -0.125,0.414 -0.25,0.64 0.015,-0.058 0.027,-0.121 0.035,-0.183 l 0.004,-0.102 c 0,-0.254 -0.082,-0.484 -0.227,-0.652 -0.082,-0.09 -0.16,-0.11 -0.215,-0.11 -0.062,0 -0.125,0.028 -0.168,0.075 -0.039,0.043 -0.058,0.097 -0.058,0.156 0,0.07 0.027,0.14 0.078,0.195 0.051,0.063 0.109,0.188 0.109,0.34 l -0.004,0.051 c -0.015,0.144 -0.082,0.273 -0.195,0.379 0,-0.016 0,-0.028 0,-0.032 0.02,-0.07 0.047,-0.152 0.074,-0.218 0,-0.012 0.016,-0.09 0.016,-0.137 0,-0.039 0.035,-0.149 0.059,-0.203 -0.059,0.031 -0.176,0.172 -0.258,0.172 -0.024,0 -0.051,0 -0.063,0 0,0.043 -0.004,0.16 0,0.191 0,0.031 -0.074,0.359 -0.074,0.363 0,0 0,0 -0.004,0 l -0.113,0.024 c 0,0 0,0 -0.004,0 0,0 -0.078,-0.063 -0.086,-0.071 l 0.055,-0.316 -0.094,0.211 c 0,0 -0.027,-0.051 -0.059,-0.094 -0.015,-0.023 -0.043,-0.027 -0.054,-0.023 l -0.164,0.293 c 0.019,0.027 0.086,0.109 0.101,0.191 l -0.035,0.012 c -0.012,-0.016 -0.066,-0.102 -0.129,-0.102 -0.039,0.004 -0.109,0.078 -0.121,0.098 l -0.031,-0.02 c 0,-0.011 0.015,-0.058 0.047,-0.105 -0.016,-0.004 -0.043,-0.012 -0.071,-0.012 -0.047,0.004 -0.121,0.043 -0.136,0.051 l -0.016,-0.031 c 0,0 0.074,-0.07 0.148,-0.082 -0.011,-0.012 -0.027,-0.028 -0.039,-0.028 -0.027,0.004 -0.082,0.004 -0.082,0.004 v -0.027 c 0,0 0.047,-0.031 0.078,-0.031 0.079,0 0.114,0.047 0.196,0.047 l 0.164,-0.313 c -0.008,-0.129 0.054,-0.137 0.051,-0.23 -0.004,-0.039 0.007,-0.071 -0.004,-0.071 -0.024,0 -0.188,0.067 -0.231,0.067 -0.043,0.004 -0.031,-0.114 -0.035,-0.137 l -0.105,-0.187 c -0.082,0.035 -0.133,0.039 -0.207,0.019 l -0.016,-0.023 c 0,0 0.004,0 0.004,0 -0.113,0.019 -0.231,0.023 -0.36,0 l -0.277,-0.075 c -0.066,-0.019 -0.133,-0.039 -0.199,-0.05 -0.063,0.015 -0.195,0.121 -0.219,0.136 -0.027,0.024 -0.062,0.036 -0.094,0.024 -0.031,-0.02 -0.046,-0.055 -0.046,-0.09 0.003,-0.031 0.019,-0.137 -0.032,-0.246 -0.051,-0.043 -0.113,-0.086 -0.172,-0.133 L 343.5,28.668 343.492,28.66 c -0.125,-0.097 -0.211,-0.215 -0.254,-0.347 h -0.015 l -0.051,-0.051 -0.145,-0.02 c 0,0 -0.144,-0.16 -0.254,-0.187 l -0.039,-0.051 c 0,-0.004 0.012,-0.074 -0.007,-0.125 -0.016,-0.047 -0.051,-0.066 -0.067,-0.078 -0.023,0.031 -0.09,0.121 -0.14,0.199 -0.055,0.082 -0.149,0.164 -0.18,0.188 0.023,0.109 0.039,0.226 0.051,0.339 0.007,0.008 0.031,0.036 0.054,0.071 0.024,0.031 0.106,0.117 0.114,0.144 0.007,0.016 0.007,0.047 -0.02,0.055 -0.043,0.012 -0.09,-0.012 -0.125,-0.035 l -0.035,-0.02 -0.02,-0.066 -0.074,-0.074 c -0.015,-0.098 -0.023,-0.2 -0.058,-0.293 -0.024,-0.067 -0.055,-0.125 -0.055,-0.125 l 0.004,-0.039 c 0.051,-0.067 0.16,-0.219 0.133,-0.297 -0.012,-0.028 -0.047,-0.059 -0.071,-0.078 -0.027,-0.028 -0.062,-0.059 -0.082,-0.098 -0.058,0.016 -0.129,0.016 -0.164,-0.059 -0.012,-0.027 -0.004,-0.054 0,-0.074 0.016,-0.043 0.063,-0.055 0.055,0.004 0,0.012 -0.004,0.023 0,0.031 0.008,0.031 0.055,0.02 0.086,0.008 -0.004,-0.07 0.015,-0.141 0.047,-0.203 0.05,-0.094 0.16,-0.168 0.179,-0.18 0.012,-0.011 0.059,-0.07 0.133,-0.136 0.039,-0.036 0.078,-0.071 0.129,-0.11 0.152,-0.109 0.231,-0.238 0.242,-0.265 l -0.023,-0.122 c -0.078,-0.066 -0.16,-0.156 -0.188,-0.253 -0.007,-0.016 -0.007,-0.036 -0.011,-0.043 -0.063,-0.008 -0.235,-0.047 -0.258,-0.125 l 0.164,-0.024 z m 4.489,5.707 c -0.121,-0.144 -0.168,-0.195 -0.297,-0.328 l 0.379,0.164 c 0.07,0.028 0.097,0.055 0.09,0.055 -0.122,0.012 -0.164,0.098 -0.172,0.109 m -0.004,-2.066 c -0.028,0.25 -0.149,0.473 -0.348,0.641 -0.16,0.132 -0.348,0.211 -0.535,0.226 0.195,0.117 0.473,0.246 0.77,0.246 0.48,0 0.542,-0.097 0.542,-0.183 0,-0.032 0.012,-0.059 0.032,-0.082 0.023,-0.02 0.051,-0.036 0.082,-0.036 0.066,0 0.121,0.055 0.121,0.118 0,0.418 -0.543,0.418 -0.777,0.418 l -0.09,-0.004 c 0.054,0.027 0.136,0.07 0.144,0.074 0.34,0.148 0.34,0.148 0.34,0.148 0.082,0.036 0.137,0.059 0.215,0.11 0.226,0.136 0.34,0.304 0.34,0.5 0,0.207 -0.153,0.429 -0.383,0.429 -0.211,0 -0.359,-0.16 -0.359,-0.39 0,-0.067 0.054,-0.117 0.121,-0.117 0.062,0 0.117,0.054 0.117,0.117 0,0.121 0.07,0.156 0.113,0.156 0.063,0 0.152,-0.074 0.152,-0.195 0,-0.11 -0.07,-0.207 -0.222,-0.301 -0.067,-0.039 -0.106,-0.055 -0.188,-0.09 l -0.351,-0.152 c 0,-0.004 -0.356,-0.188 -0.41,-0.215 l -0.012,-0.004 c -0.231,-0.144 -0.453,-0.312 -0.68,-0.516 l -0.09,-0.066 0.024,-0.02 c 0,0 0.16,0.055 0.203,-0.003 0.043,-0.059 0.012,-0.196 0.012,-0.196 l 0.062,0.012 c 0,0 0.024,0 0.024,0 0.019,0.004 0.035,0.004 0.054,0.004 0.219,0 0.422,-0.125 0.477,-0.172 0.152,-0.129 0.246,-0.293 0.262,-0.48 0,-0.016 0.003,-0.043 0.003,-0.059 0,-0.195 -0.078,-0.352 -0.14,-0.422 -0.031,-0.035 -0.047,-0.074 -0.047,-0.113 0,-0.031 0.008,-0.055 0.023,-0.074 0.024,-0.024 0.051,-0.036 0.078,-0.036 0.043,0 0.086,0.024 0.125,0.071 0.122,0.136 0.196,0.347 0.196,0.57 0,0.031 0,0.059 0,0.086 m 0.547,2.77 c 0.246,-0.043 0.465,-0.293 0.465,-0.586 0,-0.184 -0.071,-0.446 -0.418,-0.661 -0.055,-0.031 -0.098,-0.05 -0.141,-0.074 0.254,-0.094 0.387,-0.269 0.387,-0.519 0,-0.16 -0.133,-0.293 -0.297,-0.293 -0.078,0 -0.153,0.031 -0.207,0.086 -0.047,0.047 -0.078,0.109 -0.082,0.175 -0.035,0.016 -0.129,0.039 -0.367,0.039 -0.09,0 -0.184,-0.015 -0.286,-0.042 0.051,-0.02 0.227,-0.168 0.289,-0.227 0.063,-0.059 0.235,-0.109 0.309,-0.234 0.195,-0.336 0.27,-0.516 0.344,-0.825 0.039,-0.156 0.054,-0.297 0.054,-0.425 0,-0.118 -0.015,-0.211 -0.031,-0.293 l -0.015,-0.129 c -0.008,-0.11 -0.032,-0.383 -0.274,-0.465 0,0 -0.422,-0.629 -0.433,-0.652 -0.012,-0.02 -0.036,-0.024 -0.051,-0.004 -0.016,0.015 -0.18,0.207 -0.18,0.207 -0.039,0.004 -0.113,0.011 -0.176,0.039 -0.011,-0.02 -0.027,-0.032 -0.043,-0.043 -0.011,-0.012 -0.027,-0.024 -0.043,-0.032 l -0.074,-0.48 -0.051,0.008 c 0,0 -0.261,0.043 -0.261,0.043 -0.012,0 -0.071,-0.012 -0.145,-0.047 -0.019,-0.008 -0.058,-0.039 -0.082,-0.063 0.004,-0.023 0.004,-0.046 0.004,-0.07 0,-0.234 -0.113,-0.41 -0.32,-0.516 -0.137,-0.058 -0.399,-0.128 -0.653,0.133 -0.019,-0.008 -0.047,-0.011 -0.101,-0.023 -0.074,-0.031 -0.11,-0.067 -0.114,-0.074 l -0.164,-0.278 -0.386,0.231 c -0.231,-0.188 -0.344,-0.25 -0.489,-0.196 -0.054,0.024 -0.097,0.063 -0.152,0.118 0.016,-0.028 0.027,-0.063 0.027,-0.094 0,-0.152 -0.117,-0.285 -0.277,-0.285 -0.019,-0.012 -0.039,-0.024 -0.059,-0.035 -0.031,-0.079 -0.125,-0.301 -0.136,-0.325 -0.004,-0.019 -0.039,-0.023 -0.059,-0.011 -0.019,0.019 -0.461,0.371 -0.461,0.371 -0.062,-0.278 -0.258,-0.485 -0.504,-0.539 v -0.442 h -0.222 v -0.011 c 0,-0.602 -0.407,-1.04 -0.973,-1.04 -0.023,0 -0.059,0.004 -0.094,0.012 v -0.398 h 0.43 v -0.672 h -0.43 v -0.438 h -0.691 v 0.438 h -0.43 v 0.672 h 0.43 v 0.402 c -0.051,-0.008 -0.098,-0.016 -0.137,-0.016 -0.57,0 -0.969,0.43 -0.969,1.051 h -0.265 v 0.446 c -0.258,0.074 -0.457,0.324 -0.485,0.628 l -0.207,-0.171 c -0.011,-0.008 -0.39,-0.325 -0.39,-0.325 l -0.039,-0.035 -0.801,0.957 c -0.094,-0.062 -0.219,-0.097 -0.371,-0.097 -0.254,0 -0.52,0.101 -0.578,0.101 -0.258,-0.273 -0.528,-0.207 -0.668,-0.14 -0.153,0.074 -0.336,0.222 -0.336,0.519 0,0.027 0.004,0.055 0.008,0.086 -0.012,0.012 -0.039,0.035 -0.098,0.074 0,0 -0.047,0.031 -0.047,0.035 -0.285,0.207 -0.441,0.411 -0.465,0.61 h -1.246 v 1.152 h 0.859 c -0.054,0.047 -0.386,0.313 -0.386,0.844 0,0.629 0.523,0.933 0.582,0.969 -0.102,0.031 -0.199,0.046 -0.289,0.046 -0.235,0 -0.332,-0.023 -0.367,-0.039 -0.016,-0.144 -0.145,-0.261 -0.293,-0.261 -0.172,0 -0.297,0.144 -0.297,0.293 0,0.359 0.289,0.484 0.383,0.523 -0.04,0.02 -0.555,0.242 -0.555,0.727 0,0.312 0.219,0.547 0.469,0.59 -1.012,1.457 -1.602,3.218 -1.594,5.117 0.031,4.906 4.047,8.875 8.957,8.847 4.906,-0.031 8.875,-4.047 8.844,-8.949 -0.008,-1.859 -0.594,-3.59 -1.586,-5.015"
         style="fill:#ffffff;fill-opacity:1;fill-rule:nonzero;stroke:none"
         transform="scale(1.3333333)" />
      <path
         id="path174-5-0-8-6"
         d="m 340.289,43.867 v -6.269 h 6.25 c -0.043,3.429 -2.824,6.211 -6.25,6.269 m 0,-12.719 c 3.414,0.059 6.184,2.821 6.25,6.235 h -6.25 z m -0.219,6.235 h -6.254 c 0.063,-3.418 2.836,-6.18 6.254,-6.235 z m 0,6.484 c -3.429,-0.054 -6.215,-2.84 -6.254,-6.269 h 6.254 z m 6.688,-6.359 c 0,-3.625 -2.953,-6.574 -6.582,-6.574 -3.625,0 -6.582,2.949 -6.582,6.574 0,3.625 2.957,6.578 6.582,6.578 3.629,0 6.582,-2.953 6.582,-6.578"
         style="fill:#ffffff;fill-opacity:1;fill-rule:nonzero;stroke:none"
         transform="scale(1.3333333)" />
      <path
         id="path175-2-4-1-2"
         d="m 334.922,42.277 c -0.024,-0.023 -0.078,-0.097 -0.137,-0.168 -0.015,-0.015 -0.031,-0.019 -0.043,-0.011 -0.008,0.011 -0.004,0.019 0.004,0.035 0.078,0.09 0.078,0.105 -0.086,0.25 l -0.531,0.461 c -0.016,0.015 -0.024,0.015 -0.063,-0.024 -0.089,-0.109 -0.07,-0.23 0.051,-0.336 0.11,-0.093 0.235,-0.078 0.293,-0.011 0.024,0.027 0.039,0.031 0.047,0.019 0.016,-0.015 -0.008,-0.043 -0.019,-0.051 -0.137,-0.156 -0.34,-0.179 -0.497,-0.043 -0.132,0.114 -0.086,0.286 0.036,0.426 0.043,0.047 0.097,0.11 0.136,0.153 0.028,0.031 0.078,0.097 0.133,0.156 0.02,0.019 0.027,0.023 0.039,0.015 0.012,-0.007 0.012,-0.019 -0.004,-0.035 -0.054,-0.066 -0.062,-0.093 0.012,-0.16 l 0.516,-0.449 c 0.136,-0.121 0.16,-0.117 0.211,-0.063 0.011,0.012 0.023,0.02 0.031,0.012 0.012,-0.008 0.012,-0.023 -0.008,-0.043 -0.035,-0.043 -0.098,-0.105 -0.121,-0.133"
         style="fill:#ffffff;fill-opacity:1;fill-rule:nonzero;stroke:none"
         transform="scale(1.3333333)" />
      <path
         id="path176-4-3-6-2"
         d="m 333.262,41.742 c -0.121,-0.195 -0.051,-0.453 0.215,-0.613 0.343,-0.211 0.503,-0.039 0.55,0.043 0.145,0.23 0.032,0.488 -0.218,0.641 -0.293,0.179 -0.469,0.066 -0.547,-0.071 m 0.871,-0.562 c -0.192,-0.309 -0.531,-0.375 -0.813,-0.207 -0.277,0.172 -0.336,0.468 -0.152,0.773 0.227,0.371 0.578,0.352 0.785,0.223 0.223,-0.133 0.395,-0.438 0.18,-0.789"
         style="fill:#ffffff;fill-opacity:1;fill-rule:nonzero;stroke:none"
         transform="scale(1.3333333)" />
      <path
         id="path177-6-1-9-7"
         d="m 333.648,40.457 c 0.008,0.02 0.016,0.027 0.024,0.023 0.019,-0.003 0.019,-0.019 0.008,-0.042 -0.024,-0.071 -0.047,-0.133 -0.055,-0.145 -0.008,-0.023 -0.023,-0.078 -0.055,-0.168 -0.007,-0.02 -0.019,-0.031 -0.035,-0.027 -0.008,0 -0.012,0.011 -0.004,0.031 0.028,0.082 0.02,0.125 -0.109,0.176 l -0.539,0.203 0.457,-0.969 c 0.012,-0.019 0.019,-0.043 0.015,-0.059 -0.007,-0.011 -0.023,-0.019 -0.058,-0.007 l -0.84,0.285 c -0.086,0.031 -0.117,0.027 -0.141,-0.039 -0.007,-0.02 -0.015,-0.031 -0.027,-0.028 -0.012,0.008 -0.012,0.024 -0.008,0.043 0.028,0.067 0.051,0.118 0.055,0.133 0.008,0.028 0.027,0.09 0.051,0.164 0.011,0.024 0.023,0.039 0.035,0.035 0.016,-0.003 0.012,-0.019 0.008,-0.035 -0.032,-0.09 -0.02,-0.117 0.082,-0.156 l 0.582,-0.223 -0.477,0.953 c -0.008,0.024 -0.023,0.059 -0.015,0.083 0.007,0.015 0.027,0.015 0.058,0.007 l 0.817,-0.281 c 0.136,-0.047 0.148,-0.023 0.171,0.043"
         style="fill:#ffffff;fill-opacity:1;fill-rule:nonzero;stroke:none"
         transform="scale(1.3333333)" />
      <path
         id="path178-9-5-9-7"
         d="m 332.387,39.363 c 0.015,-0.004 0.031,-0.008 0.023,-0.027 0,-0.012 -0.012,-0.016 -0.023,-0.016 -0.055,0 -0.09,-0.031 -0.11,-0.14 l -0.043,-0.2 0.692,-0.121 c 0.219,-0.039 0.242,-0.031 0.258,0.047 0,0.02 0.007,0.032 0.023,0.028 0.012,0 0.016,-0.012 0.012,-0.036 -0.008,-0.058 -0.028,-0.148 -0.035,-0.175 -0.008,-0.043 -0.016,-0.133 -0.032,-0.227 -0.007,-0.016 -0.015,-0.031 -0.027,-0.027 -0.016,0 -0.016,0.019 -0.016,0.027 0.02,0.113 0.012,0.133 -0.222,0.172 l -0.684,0.121 -0.023,-0.172 c -0.02,-0.125 0,-0.164 0.058,-0.172 0.028,-0.004 0.032,-0.019 0.032,-0.031 -0.004,-0.012 -0.016,-0.012 -0.036,-0.012 -0.035,0.004 -0.132,0.016 -0.16,0.02 -0.027,0.004 -0.035,0.012 -0.035,0.027 0.004,0.012 0.024,0.039 0.039,0.129 l 0.11,0.633 c 0.011,0.066 -0.004,0.117 0,0.133 0,0.011 0.007,0.015 0.035,0.015 0.007,0.004 0.125,0.008 0.164,0.004"
         style="fill:#ffffff;fill-opacity:1;fill-rule:nonzero;stroke:none"
         transform="scale(1.3333333)" />
      <path
         id="path179-9-2-3-2"
         d="m 332.07,38.113 c -0.004,-0.078 0.016,-0.09 0.071,-0.093 0.047,-0.008 0.082,-0.008 0.297,-0.02 l 0.246,-0.012 c 0.136,-0.008 0.25,-0.011 0.304,-0.008 0.063,0.004 0.075,0.024 0.078,0.083 0,0.015 0.004,0.027 0.016,0.027 0.016,0 0.023,-0.012 0.02,-0.035 -0.004,-0.055 -0.012,-0.149 -0.012,-0.18 -0.004,-0.039 0,-0.129 -0.004,-0.223 -0.004,-0.023 -0.012,-0.035 -0.027,-0.031 -0.012,0 -0.016,0.016 -0.016,0.031 0.004,0.078 -0.004,0.118 -0.063,0.125 -0.058,0.008 -0.167,0.016 -0.304,0.02 l -0.246,0.012 c -0.215,0.011 -0.254,0.015 -0.301,0.011 -0.059,0 -0.078,-0.019 -0.078,-0.082 0,-0.011 -0.004,-0.031 -0.024,-0.031 -0.011,0.004 -0.019,0.016 -0.019,0.039 0.004,0.055 0.012,0.137 0.012,0.172 0.003,0.043 0.003,0.133 0.007,0.187 0,0.028 0.012,0.04 0.02,0.04 0.019,0 0.023,-0.02 0.023,-0.032"
         style="fill:#ffffff;fill-opacity:1;fill-rule:nonzero;stroke:none"
         transform="scale(1.3333333)" />
      <path
         id="path180-5-1-5-1"
         d="m 332.027,37.281 c 0.012,0 0.02,-0.011 0.02,-0.031 0.004,-0.098 0.023,-0.109 0.168,-0.102 l 0.629,0.043 c 0.199,0.016 0.203,0.036 0.199,0.11 0,0.015 0,0.027 0.016,0.031 0.015,0 0.023,-0.016 0.023,-0.039 0.004,-0.055 0.008,-0.145 0.008,-0.18 0.004,-0.039 0.012,-0.125 0.019,-0.215 0.004,-0.027 -0.007,-0.039 -0.019,-0.043 -0.012,0 -0.016,0.016 -0.02,0.032 -0.007,0.105 -0.011,0.129 -0.215,0.117 l -0.222,-0.02 c -0.008,0 -0.008,-0.004 -0.008,-0.011 0.004,-0.02 0.012,-0.164 0.016,-0.2 0.011,-0.054 0.054,-0.07 0.097,-0.07 0.012,0 0.024,-0.004 0.028,-0.015 0,-0.02 -0.016,-0.024 -0.036,-0.024 -0.105,-0.008 -0.16,-0.027 -0.187,-0.031 -0.012,0 -0.02,0.004 -0.02,0.015 0,0.02 0.04,0.024 0.036,0.09 l -0.016,0.231 c 0,0.004 0,0.011 -0.004,0.011 l -0.41,-0.031 c -0.008,0 -0.008,0 -0.008,-0.008 l 0.016,-0.214 c 0.004,-0.051 0.027,-0.079 0.043,-0.086 0.015,-0.008 0.035,-0.008 0.054,-0.004 0.02,0 0.032,-0.004 0.032,-0.02 0,-0.012 -0.012,-0.019 -0.028,-0.019 -0.015,-0.008 -0.097,-0.016 -0.113,-0.02 -0.02,0 -0.035,-0.008 -0.051,-0.012 -0.004,0 -0.008,-0.003 -0.008,-0.003 -0.015,0 -0.023,0.003 -0.027,0.015 0,0.004 0.008,0.012 0.008,0.02 v 0.004 c 0.008,0.015 0.004,0.043 0.004,0.058 -0.004,0.031 -0.02,0.32 -0.024,0.375 -0.004,0.043 -0.011,0.133 -0.019,0.203 0,0.032 0.004,0.043 0.019,0.043"
         style="fill:#ffffff;fill-opacity:1;fill-rule:nonzero;stroke:none"
         transform="scale(1.3333333)" />
      <path
         id="path181-6-7-6-8"
         d="m 332.152,36.188 c 0.016,-0.075 0.039,-0.083 0.094,-0.075 0.047,0.004 0.082,0.016 0.293,0.051 l 0.242,0.051 c 0.133,0.023 0.242,0.043 0.297,0.062 0.063,0.016 0.067,0.039 0.055,0.094 0,0.02 0,0.031 0.012,0.035 0.015,0 0.023,-0.008 0.031,-0.031 0.008,-0.055 0.019,-0.145 0.027,-0.176 0.008,-0.039 0.027,-0.125 0.047,-0.219 0.004,-0.023 -0.004,-0.039 -0.016,-0.039 -0.015,0 -0.023,0.012 -0.023,0.028 -0.016,0.078 -0.035,0.113 -0.09,0.109 -0.062,-0.012 -0.168,-0.031 -0.305,-0.055 l -0.242,-0.046 c -0.211,-0.039 -0.25,-0.043 -0.293,-0.055 -0.058,-0.024 -0.07,-0.039 -0.058,-0.106 0.004,-0.011 0.004,-0.027 -0.016,-0.035 -0.012,0 -0.019,0.012 -0.023,0.035 -0.012,0.055 -0.024,0.141 -0.028,0.172 -0.011,0.043 -0.031,0.129 -0.039,0.18 -0.008,0.031 0,0.047 0.008,0.047 0.02,0.004 0.023,-0.012 0.027,-0.027"
         style="fill:#ffffff;fill-opacity:1;fill-rule:nonzero;stroke:none"
         transform="scale(1.3333333)" />
      <path
         id="path182-9-2-9-0"
         d="m 332.773,35.5 c 0.379,0.141 0.649,-0.105 0.762,-0.445 0.031,-0.086 0.059,-0.192 0.055,-0.254 0,-0.028 -0.008,-0.039 -0.027,-0.055 -0.04,-0.031 -0.153,-0.086 -0.168,-0.094 -0.016,-0.004 -0.032,0 -0.036,0.012 0,0.012 0,0.02 0.024,0.035 0.101,0.071 0.125,0.149 0.058,0.34 -0.082,0.234 -0.3,0.363 -0.613,0.254 -0.25,-0.094 -0.379,-0.262 -0.289,-0.516 0.055,-0.156 0.168,-0.297 0.309,-0.25 0.023,0.012 0.039,0.004 0.043,-0.007 0.007,-0.012 -0.004,-0.024 -0.028,-0.036 -0.027,-0.011 -0.097,-0.039 -0.144,-0.054 -0.043,-0.02 -0.059,-0.028 -0.071,-0.032 -0.011,-0.003 -0.019,0 -0.031,0.02 -0.027,0.07 -0.097,0.156 -0.152,0.316 -0.106,0.317 -0.016,0.661 0.308,0.766"
         style="fill:#ffffff;fill-opacity:1;fill-rule:nonzero;stroke:none"
         transform="scale(1.3333333)" />
      <path
         id="path183-8-2-7-83"
         d="m 332.836,34.008 c 0.035,-0.07 0.062,-0.07 0.109,-0.051 0.043,0.02 0.078,0.039 0.27,0.133 l 0.219,0.113 c 0.121,0.063 0.222,0.11 0.269,0.145 0.051,0.031 0.051,0.058 0.027,0.109 -0.011,0.016 -0.011,0.027 0,0.031 0.012,0.008 0.024,0 0.036,-0.019 0.023,-0.055 0.062,-0.133 0.078,-0.16 0.015,-0.039 0.062,-0.118 0.101,-0.196 0.016,-0.023 0.008,-0.035 0,-0.043 -0.011,-0.007 -0.023,0.004 -0.035,0.02 -0.035,0.07 -0.055,0.101 -0.113,0.078 -0.055,-0.023 -0.152,-0.074 -0.274,-0.133 l -0.222,-0.117 c -0.192,-0.094 -0.227,-0.109 -0.266,-0.133 -0.051,-0.035 -0.055,-0.058 -0.027,-0.117 0.008,-0.012 0.012,-0.027 -0.008,-0.035 -0.008,-0.004 -0.02,0.004 -0.031,0.023 -0.024,0.051 -0.059,0.129 -0.074,0.16 -0.02,0.036 -0.063,0.114 -0.09,0.164 -0.012,0.024 -0.012,0.04 0,0.043 0.015,0.008 0.027,-0.007 0.031,-0.015"
         style="fill:#ffffff;fill-opacity:1;fill-rule:nonzero;stroke:none"
         transform="scale(1.3333333)" />
      <path
         id="path184-1-8-6-9"
         d="m 334.086,33.16 -0.176,0.242 -0.242,-0.351 c 0,0 -0.004,0 -0.004,0 h 0.004 z m -0.106,0.555 c 0.055,0.09 0.059,0.129 0.008,0.203 -0.004,0.008 -0.008,0.02 0.004,0.027 0.016,0.012 0.028,0.004 0.035,-0.015 0.043,-0.059 0.086,-0.125 0.098,-0.141 0.023,-0.035 0.063,-0.082 0.086,-0.121 0.016,-0.016 0.019,-0.027 0,-0.035 -0.016,-0.012 -0.02,-0.004 -0.035,0.023 -0.028,0.039 -0.047,0.039 -0.067,0.024 -0.011,-0.004 -0.035,-0.032 -0.054,-0.063 l -0.086,-0.129 c -0.008,-0.008 0,-0.011 0,-0.019 l 0.203,-0.278 c 0.004,-0.007 0.004,-0.007 0.012,-0.007 l 0.246,0.058 c 0.015,0.004 -0.02,0.071 -0.024,0.074 -0.004,0.012 -0.008,0.024 0.004,0.032 0.012,0.007 0.028,0 0.051,-0.032 0.012,-0.023 0.059,-0.097 0.082,-0.132 0.023,-0.032 0.066,-0.079 0.082,-0.11 0.035,-0.047 0.035,-0.062 0.027,-0.07 -0.015,-0.008 -0.019,-0.004 -0.031,0.008 -0.039,0.058 -0.125,0.047 -0.207,0.027 -0.226,-0.043 -0.832,-0.187 -0.918,-0.203 -0.039,-0.004 -0.055,-0.004 -0.062,0.008 -0.008,0.008 -0.004,0.031 0.023,0.074 z"
         style="fill:#ffffff;fill-opacity:1;fill-rule:nonzero;stroke:none"
         transform="scale(1.3333333)" />
      <path
         id="path185-8-3-4-7"
         d="m 334.535,31.625 c 0.074,-0.062 0.098,-0.059 0.192,0.055 l 0.269,0.32 c 0.211,0.25 0.418,0.27 0.652,0.078 0.247,-0.211 0.204,-0.441 -0.003,-0.691 l -0.231,-0.278 c -0.09,-0.105 -0.105,-0.125 -0.035,-0.183 0.016,-0.012 0.019,-0.024 0.008,-0.039 -0.008,-0.008 -0.02,-0.004 -0.039,0.011 -0.043,0.036 -0.082,0.075 -0.121,0.106 -0.032,0.027 -0.075,0.055 -0.129,0.105 -0.024,0.016 -0.024,0.028 -0.02,0.036 0.012,0.011 0.024,0.011 0.039,-0.004 0.082,-0.067 0.098,-0.051 0.188,0.058 l 0.25,0.297 c 0.175,0.219 0.215,0.359 0.058,0.492 -0.183,0.153 -0.328,0.051 -0.472,-0.121 l -0.266,-0.316 c -0.086,-0.106 -0.09,-0.133 -0.031,-0.18 0.015,-0.016 0.019,-0.027 0.008,-0.035 -0.008,-0.008 -0.02,-0.008 -0.039,0.008 -0.043,0.031 -0.09,0.082 -0.133,0.117 -0.059,0.047 -0.106,0.078 -0.164,0.129 -0.02,0.015 -0.024,0.031 -0.016,0.039 0.008,0.012 0.023,0.012 0.035,-0.004"
         style="fill:#ffffff;fill-opacity:1;fill-rule:nonzero;stroke:none"
         transform="scale(1.3333333)" />
      <path
         id="path186-2-4-2-4"
         d="m 336.258,31.352 c 0.066,0.125 0.047,0.14 -0.016,0.175 -0.019,0.012 -0.023,0.02 -0.019,0.032 0.011,0.011 0.019,0.011 0.043,0 0.066,-0.039 0.125,-0.075 0.136,-0.082 0.02,-0.008 0.075,-0.036 0.157,-0.079 0.015,-0.011 0.031,-0.027 0.019,-0.043 -0.004,-0.003 -0.012,-0.003 -0.027,0.004 -0.078,0.043 -0.121,0.039 -0.192,-0.082 l -0.289,-0.496 1.032,0.297 c 0.023,0.008 0.046,0.012 0.062,0.004 0.012,-0.008 0.016,-0.027 0,-0.055 l -0.422,-0.789 c -0.039,-0.078 -0.047,-0.109 0.024,-0.144 0.019,-0.008 0.027,-0.02 0.019,-0.031 -0.004,-0.012 -0.023,-0.008 -0.043,0 -0.062,0.039 -0.105,0.066 -0.125,0.074 -0.023,0.015 -0.09,0.043 -0.148,0.078 -0.024,0.015 -0.035,0.031 -0.031,0.043 0.007,0.012 0.015,0.008 0.035,0 0.086,-0.047 0.113,-0.035 0.168,0.055 l 0.308,0.539 -1.019,-0.317 c -0.024,-0.008 -0.059,-0.015 -0.082,-0.004 -0.016,0.008 -0.012,0.028 0.004,0.059 z"
         style="fill:#ffffff;fill-opacity:1;fill-rule:nonzero;stroke:none"
         transform="scale(1.3333333)" />
      <path
         id="path187-3-2-8-1"
         d="m 337.199,29.945 c 0.074,-0.027 0.09,-0.011 0.114,0.039 0.019,0.043 0.031,0.079 0.105,0.278 l 0.086,0.234 c 0.043,0.129 0.086,0.234 0.098,0.289 0.011,0.063 -0.004,0.074 -0.059,0.098 -0.016,0.004 -0.027,0.012 -0.02,0.023 0.004,0.012 0.016,0.02 0.04,0.012 0.054,-0.023 0.136,-0.059 0.167,-0.066 0.036,-0.016 0.122,-0.039 0.211,-0.071 0.024,-0.008 0.032,-0.023 0.024,-0.035 -0.004,-0.012 -0.02,-0.012 -0.035,-0.008 -0.075,0.028 -0.114,0.032 -0.137,-0.019 -0.023,-0.055 -0.063,-0.16 -0.113,-0.289 l -0.082,-0.235 c -0.075,-0.199 -0.09,-0.234 -0.102,-0.277 -0.016,-0.059 0,-0.078 0.059,-0.105 0.011,0 0.027,-0.012 0.019,-0.028 -0.004,-0.012 -0.015,-0.019 -0.043,-0.004 -0.047,0.02 -0.125,0.051 -0.16,0.063 -0.039,0.011 -0.121,0.043 -0.176,0.062 -0.027,0.008 -0.035,0.016 -0.031,0.028 0.004,0.019 0.024,0.015 0.035,0.011"
         style="fill:#ffffff;fill-opacity:1;fill-rule:nonzero;stroke:none"
         transform="scale(1.3333333)" />
      <path
         id="path188-1-7-0-6"
         d="m 337.867,29.684 c 0.09,-0.016 0.133,0.019 0.176,0.082 l 0.551,0.789 c 0.023,0.035 0.047,0.054 0.062,0.05 0.016,-0.007 0.028,-0.027 0.043,-0.085 l 0.188,-0.907 c 0.019,-0.117 0.043,-0.152 0.105,-0.168 0.028,-0.007 0.035,-0.011 0.031,-0.023 -0.003,-0.016 -0.019,-0.02 -0.043,-0.016 -0.039,0.012 -0.078,0.024 -0.128,0.032 -0.039,0.011 -0.079,0.019 -0.153,0.031 -0.027,0.008 -0.043,0.011 -0.039,0.031 0,0.016 0.016,0.016 0.039,0.012 0.043,-0.008 0.063,-0.004 0.071,0.008 0,0.015 0.003,0.035 0,0.054 l -0.129,0.735 -0.371,-0.563 c -0.032,-0.047 -0.051,-0.082 -0.051,-0.101 -0.008,-0.032 0.031,-0.04 0.051,-0.047 0.019,0 0.027,-0.008 0.023,-0.02 0,-0.015 -0.02,-0.019 -0.039,-0.015 -0.07,0.019 -0.137,0.035 -0.172,0.039 -0.051,0.015 -0.129,0.027 -0.203,0.039 -0.027,0.011 -0.043,0.023 -0.043,0.035 0.008,0.008 0.016,0.015 0.031,0.008"
         style="fill:#ffffff;fill-opacity:1;fill-rule:nonzero;stroke:none"
         transform="scale(1.3333333)" />
      <path
         id="path189-4-5-9-8"
         d="m 339.324,29.418 c 0.078,-0.008 0.11,0.012 0.114,0.066 0,0.051 0.007,0.082 0.019,0.301 l 0.016,0.25 c 0.004,0.074 0.007,0.141 0.011,0.199 0.008,0.157 0,0.176 -0.082,0.18 -0.015,0 -0.027,0.008 -0.023,0.02 0,0.011 0.008,0.019 0.035,0.019 0.055,-0.004 0.149,-0.015 0.176,-0.015 0.152,-0.008 0.293,-0.008 0.43,-0.02 0.031,-0.004 0.043,-0.016 0.05,-0.043 0,-0.031 0.008,-0.129 0.008,-0.16 -0.004,-0.02 -0.008,-0.031 -0.023,-0.031 -0.012,0 -0.02,0.011 -0.02,0.031 -0.008,0.055 -0.019,0.078 -0.055,0.101 -0.035,0.016 -0.14,0.024 -0.175,0.028 -0.106,0.004 -0.117,0.004 -0.121,-0.094 -0.004,-0.043 -0.012,-0.164 -0.024,-0.324 0,-0.004 0.004,-0.008 0.008,-0.008 0.012,0 0.168,-0.008 0.195,-0.008 0.067,-0.004 0.082,0.051 0.086,0.09 0,0.012 0.008,0.023 0.02,0.023 0.015,-0.003 0.019,-0.023 0.015,-0.039 -0.004,-0.074 0.008,-0.175 0.008,-0.195 0,-0.012 -0.008,-0.023 -0.019,-0.023 -0.008,0 -0.016,0.019 -0.035,0.035 -0.008,0.008 -0.043,0.031 -0.122,0.031 -0.058,0.008 -0.128,0.008 -0.148,0.012 -0.008,0 -0.012,-0.004 -0.012,-0.012 l -0.023,-0.375 c -0.004,-0.012 0,-0.012 0.004,-0.012 0.277,-0.015 0.285,-0.011 0.301,0.078 0.003,0.02 0.003,0.032 0.023,0.032 0.012,-0.004 0.019,-0.012 0.019,-0.028 -0.007,-0.117 0.008,-0.152 0.004,-0.183 0,-0.008 -0.004,-0.024 -0.015,-0.02 -0.012,0 -0.035,0.02 -0.082,0.02 -0.028,0.004 -0.309,0.019 -0.356,0.023 -0.039,0 -0.129,0.008 -0.207,0.012 -0.023,0 -0.039,0.012 -0.035,0.019 0,0.012 0.012,0.02 0.035,0.02"
         style="fill:#ffffff;fill-opacity:1;fill-rule:nonzero;stroke:none"
         transform="scale(1.3333333)" />
      <path
         id="path190-1-1-4-0"
         d="m 340.75,29.465 c 0,-0.008 0.004,-0.02 0.082,-0.008 0.125,0.008 0.203,0.106 0.188,0.266 -0.012,0.129 -0.067,0.222 -0.196,0.211 -0.078,-0.008 -0.113,-0.02 -0.109,-0.043 z m -0.355,0.949 c 0.058,0.008 0.148,0.008 0.175,0.012 0.02,0.004 0.125,0.015 0.207,0.023 0.024,0.004 0.036,-0.008 0.036,-0.015 0.003,-0.016 -0.008,-0.024 -0.02,-0.024 -0.113,-0.012 -0.125,-0.039 -0.109,-0.187 l 0.019,-0.219 c 0,-0.004 0,-0.004 0.004,-0.004 l 0.121,0.016 c 0.016,0 0.02,0.007 0.024,0.015 0.046,0.067 0.082,0.137 0.121,0.199 0.101,0.165 0.175,0.25 0.336,0.266 l 0.132,0.012 c 0.024,0.004 0.036,0 0.036,-0.02 0,-0.011 -0.008,-0.019 -0.024,-0.019 -0.109,-0.012 -0.207,-0.086 -0.457,-0.504 0.145,-0.086 0.207,-0.188 0.211,-0.297 0.023,-0.199 -0.156,-0.277 -0.34,-0.293 -0.043,-0.008 -0.152,-0.008 -0.199,-0.016 -0.031,-0.004 -0.117,-0.011 -0.195,-0.015 -0.028,-0.004 -0.039,0 -0.039,0.011 -0.004,0.012 0.007,0.024 0.027,0.028 0.109,0.008 0.113,0.027 0.102,0.16 l -0.063,0.668 c -0.012,0.137 -0.023,0.168 -0.105,0.164 -0.02,0 -0.032,0.004 -0.032,0.016 0,0.011 0.008,0.019 0.032,0.023"
         style="fill:#ffffff;fill-opacity:1;fill-rule:nonzero;stroke:none"
         transform="scale(1.3333333)" />
      <path
         id="path191-3-2-8-8"
         d="m 341.805,30.629 c 0.183,0.043 0.379,-0.027 0.425,-0.219 0.079,-0.324 -0.324,-0.469 -0.273,-0.672 0.016,-0.078 0.09,-0.125 0.191,-0.097 0.102,0.027 0.161,0.117 0.141,0.191 -0.004,0.02 -0.004,0.035 0.016,0.039 0.011,0.004 0.023,-0.008 0.031,-0.043 0.027,-0.105 0.043,-0.144 0.047,-0.16 0,-0.012 0,-0.023 -0.016,-0.027 -0.027,-0.024 -0.094,-0.051 -0.183,-0.075 -0.196,-0.046 -0.356,0.032 -0.391,0.192 -0.078,0.312 0.324,0.445 0.262,0.687 -0.016,0.071 -0.094,0.137 -0.215,0.11 -0.137,-0.035 -0.18,-0.157 -0.156,-0.254 0.004,-0.012 0.004,-0.031 -0.012,-0.035 -0.016,-0.004 -0.027,0.011 -0.035,0.035 l -0.055,0.195 c -0.012,0.039 0.082,0.094 0.223,0.133"
         style="fill:#ffffff;fill-opacity:1;fill-rule:nonzero;stroke:none"
         transform="scale(1.3333333)" />
      <path
         id="path192-8-3-7-2"
         d="m 342.469,30.797 c 0.054,0.019 0.14,0.047 0.168,0.058 0.039,0.016 0.121,0.051 0.207,0.083 0.023,0.007 0.039,0.003 0.043,-0.008 0.004,-0.012 -0.008,-0.024 -0.024,-0.028 -0.074,-0.031 -0.109,-0.05 -0.09,-0.105 0.016,-0.059 0.055,-0.164 0.102,-0.293 l 0.086,-0.231 c 0.074,-0.203 0.09,-0.238 0.109,-0.277 0.024,-0.058 0.047,-0.066 0.11,-0.043 0.011,0.008 0.027,0.008 0.035,-0.012 0,-0.011 -0.008,-0.019 -0.027,-0.027 -0.055,-0.019 -0.133,-0.047 -0.168,-0.059 -0.04,-0.011 -0.122,-0.046 -0.172,-0.066 -0.028,-0.012 -0.043,-0.008 -0.043,0 -0.008,0.02 0.008,0.027 0.019,0.031 0.074,0.032 0.074,0.055 0.059,0.106 -0.012,0.047 -0.028,0.078 -0.098,0.281 l -0.09,0.231 c -0.047,0.128 -0.086,0.234 -0.113,0.281 -0.027,0.058 -0.047,0.062 -0.105,0.039 -0.016,-0.004 -0.028,-0.008 -0.032,0.004 -0.007,0.015 0,0.027 0.024,0.035"
         style="fill:#ffffff;fill-opacity:1;fill-rule:nonzero;stroke:none"
         transform="scale(1.3333333)" />
      <path
         id="path193-6-4-8-1"
         d="m 343.566,30.945 0.321,-0.57 c 0.019,-0.039 0.031,-0.047 0.117,0 0.269,0.152 0.375,0.414 0.226,0.684 -0.152,0.281 -0.343,0.32 -0.605,0.171 -0.16,-0.085 -0.152,-0.121 -0.059,-0.285 m -0.41,0.078 c -0.008,0.012 0,0.024 0.02,0.036 0.051,0.027 0.133,0.066 0.16,0.082 0.062,0.035 0.164,0.113 0.258,0.164 0.312,0.175 0.652,0.148 0.836,-0.18 0.187,-0.332 0.004,-0.598 -0.371,-0.809 -0.075,-0.039 -0.153,-0.082 -0.192,-0.101 -0.035,-0.02 -0.117,-0.07 -0.176,-0.106 -0.027,-0.015 -0.039,-0.011 -0.043,0 -0.011,0.012 -0.003,0.02 0.016,0.032 0.07,0.035 0.086,0.07 0.059,0.121 -0.024,0.039 -0.039,0.074 -0.145,0.261 l -0.121,0.215 c -0.176,0.309 -0.195,0.321 -0.25,0.289 -0.027,-0.015 -0.043,-0.015 -0.051,-0.004"
         style="fill:#ffffff;fill-opacity:1;fill-rule:nonzero;stroke:none"
         transform="scale(1.3333333)" />
      <path
         id="path194-3-2-9-0"
         d="m 345.184,31.418 c 0.004,-0.004 0.004,-0.008 0.004,-0.008 v 0.008 l -0.145,0.402 -0.23,-0.191 z m -0.891,0.242 c -0.004,-0.008 -0.016,-0.012 -0.027,0 -0.008,0.012 -0.004,0.024 0.015,0.039 0.055,0.047 0.117,0.094 0.129,0.106 0.035,0.027 0.078,0.07 0.113,0.097 0.016,0.012 0.028,0.016 0.04,0.004 0.007,-0.011 0.003,-0.019 -0.024,-0.043 -0.031,-0.027 -0.031,-0.047 -0.019,-0.062 0.011,-0.012 0.035,-0.035 0.07,-0.051 l 0.137,-0.074 c 0.007,-0.004 0.011,0 0.015,0.004 l 0.262,0.222 c 0.008,0.004 0.008,0.008 0.008,0.012 l -0.082,0.246 c -0.004,0.012 -0.063,-0.031 -0.071,-0.031 -0.011,-0.008 -0.023,-0.012 -0.035,-0.004 -0.008,0.008 0,0.031 0.031,0.051 0.02,0.019 0.09,0.07 0.122,0.097 0.027,0.032 0.074,0.075 0.101,0.09 0.047,0.039 0.063,0.043 0.07,0.032 0.008,-0.008 0.004,-0.016 -0.007,-0.032 -0.051,-0.039 -0.032,-0.125 -0.008,-0.203 0.066,-0.226 0.258,-0.812 0.281,-0.894 0.012,-0.039 0.012,-0.055 0,-0.067 -0.012,-0.008 -0.031,-0.004 -0.074,0.02 l -0.844,0.449 c -0.09,0.047 -0.133,0.047 -0.203,-0.008"
         style="fill:#ffffff;fill-opacity:1;fill-rule:nonzero;stroke:none"
         transform="scale(1.3333333)" />
      <path
         id="path195-7-4-8-9"
         d="m 345.707,32.613 0.504,-0.414 c 0.039,-0.027 0.051,-0.035 0.113,0.043 0.199,0.238 0.203,0.524 -0.031,0.727 -0.25,0.203 -0.441,0.172 -0.633,-0.059 -0.113,-0.14 -0.097,-0.18 0.047,-0.297 m -0.359,-0.047 c -0.02,-0.023 -0.035,-0.035 -0.047,-0.023 -0.008,0.008 -0.008,0.02 0.008,0.039 0.035,0.047 0.093,0.109 0.117,0.141 0.043,0.047 0.113,0.16 0.179,0.242 0.231,0.273 0.551,0.375 0.844,0.133 0.297,-0.246 0.223,-0.555 -0.051,-0.891 -0.054,-0.066 -0.113,-0.133 -0.144,-0.164 -0.024,-0.031 -0.082,-0.105 -0.125,-0.164 -0.016,-0.02 -0.031,-0.024 -0.043,-0.016 -0.008,0.012 -0.004,0.02 0.008,0.039 0.051,0.059 0.058,0.094 0.011,0.133 -0.035,0.028 -0.062,0.055 -0.23,0.195 l -0.191,0.157 c -0.274,0.222 -0.297,0.226 -0.336,0.179"
         style="fill:#ffffff;fill-opacity:1;fill-rule:nonzero;stroke:none"
         transform="scale(1.3333333)" />
      <path
         id="path196-4-0-2-5"
         d="m 346.852,35.035 c 0.019,0.02 0.031,0.024 0.058,0.02 0.051,-0.004 0.172,-0.035 0.188,-0.047 0.011,-0.004 0.019,-0.012 0.015,-0.028 -0.008,-0.011 -0.011,-0.015 -0.039,-0.011 -0.121,0.019 -0.191,-0.024 -0.273,-0.211 -0.102,-0.227 -0.024,-0.469 0.277,-0.602 0.246,-0.097 0.457,-0.062 0.567,0.184 0.066,0.152 0.074,0.332 -0.063,0.394 -0.019,0.008 -0.031,0.024 -0.023,0.036 0.004,0.011 0.019,0.011 0.043,0.003 0.027,-0.007 0.097,-0.039 0.14,-0.054 0.051,-0.016 0.067,-0.02 0.074,-0.024 0.012,-0.004 0.02,-0.015 0.012,-0.035 -0.023,-0.074 -0.035,-0.183 -0.101,-0.336 -0.137,-0.308 -0.43,-0.496 -0.747,-0.359 -0.371,0.16 -0.402,0.523 -0.261,0.848 0.035,0.082 0.09,0.179 0.133,0.222"
         style="fill:#ffffff;fill-opacity:1;fill-rule:nonzero;stroke:none"
         transform="scale(1.3333333)" />
      <path
         id="path197-9-2-3-19"
         d="m 347.82,35.566 c 0.008,0 0.008,0 0.008,-0.003 v 0.003 h -0.008 l -0.351,0.243 -0.071,-0.293 z m -0.859,-0.332 c 0,-0.011 -0.008,-0.023 -0.023,-0.019 -0.012,0.004 -0.02,0.019 -0.012,0.039 0.015,0.07 0.039,0.144 0.043,0.16 0.011,0.043 0.023,0.109 0.035,0.152 0.004,0.016 0.012,0.032 0.023,0.028 0.02,-0.012 0.02,-0.02 0.008,-0.055 -0.008,-0.039 0.004,-0.055 0.024,-0.059 0.015,-0.003 0.046,-0.003 0.089,0 l 0.153,0.02 c 0.004,0 0.008,0.004 0.008,0.016 l 0.082,0.332 c 0,0.007 0,0.007 -0.004,0.011 l -0.207,0.153 c -0.012,0.008 -0.039,-0.059 -0.043,-0.071 -0.004,-0.007 -0.012,-0.019 -0.028,-0.015 -0.007,0 -0.015,0.023 -0.004,0.058 0.004,0.024 0.032,0.11 0.043,0.149 0.008,0.035 0.02,0.101 0.024,0.137 0.016,0.058 0.027,0.066 0.039,0.066 0.016,-0.008 0.016,-0.016 0.012,-0.031 -0.016,-0.067 0.05,-0.121 0.117,-0.172 0.183,-0.141 0.687,-0.5 0.754,-0.555 0.031,-0.019 0.043,-0.039 0.039,-0.055 -0.004,-0.011 -0.024,-0.023 -0.07,-0.031 l -0.942,-0.133 c -0.105,-0.015 -0.137,-0.043 -0.16,-0.125"
         style="fill:#ffffff;fill-opacity:1;fill-rule:nonzero;stroke:none"
         transform="scale(1.3333333)" />
      <path
         id="path198-5-0-3-47"
         d="m 348.098,36.34 c -0.016,0 -0.032,0.004 -0.028,0.023 0,0.012 0.012,0.02 0.024,0.02 0.051,0.004 0.086,0.035 0.101,0.148 l 0.02,0.203 -0.699,0.059 c -0.223,0.02 -0.243,0.008 -0.25,-0.07 -0.004,-0.02 -0.008,-0.032 -0.02,-0.028 -0.016,0 -0.023,0.012 -0.019,0.035 0.003,0.059 0.015,0.145 0.019,0.18 0.004,0.039 0.008,0.129 0.016,0.223 0,0.019 0.008,0.035 0.023,0.031 0.016,0.004 0.016,-0.016 0.016,-0.031 -0.008,-0.113 0.004,-0.129 0.238,-0.149 l 0.691,-0.058 0.012,0.172 c 0.012,0.125 -0.019,0.16 -0.07,0.168 -0.031,0.004 -0.039,0.011 -0.039,0.027 0.004,0.012 0.012,0.016 0.039,0.016 0.031,0 0.129,-0.008 0.16,-0.008 0.023,0 0.039,-0.008 0.035,-0.024 0,-0.007 -0.023,-0.043 -0.027,-0.132 l -0.051,-0.637 c -0.012,-0.07 0.008,-0.117 0.008,-0.133 0,-0.012 -0.004,-0.016 -0.035,-0.02 -0.004,-0.003 -0.129,-0.019 -0.164,-0.015"
         style="fill:#ffffff;fill-opacity:1;fill-rule:nonzero;stroke:none"
         transform="scale(1.3333333)" />
      <path
         id="path199-5-8-5-0"
         d="m 348.262,38.176 c -0.024,0.226 -0.227,0.394 -0.543,0.363 -0.399,-0.035 -0.426,-0.262 -0.418,-0.359 0.023,-0.27 0.265,-0.41 0.554,-0.383 0.348,0.027 0.418,0.219 0.407,0.379 m 0.246,0.25 c -0.004,-0.008 -0.121,-0.211 -0.172,-0.293 -0.008,-0.367 -0.281,-0.531 -0.504,-0.555 -0.254,-0.019 -0.574,0.121 -0.609,0.535 -0.032,0.36 0.207,0.621 0.531,0.649 0.32,0.023 0.543,-0.176 0.582,-0.52 0.031,0.11 0.07,0.254 0.07,0.258 0.004,0.023 0.02,0.027 0.039,0.02 0.028,-0.02 0.043,-0.024 0.059,-0.032 0.008,-0.008 0.023,-0.031 0.004,-0.062"
         style="fill:#ffffff;fill-opacity:1;fill-rule:nonzero;stroke:none"
         transform="scale(1.3333333)" />
      <path
         id="path200-1-4-2-6"
         d="m 348.125,39.254 c -0.023,0.098 -0.047,0.09 -0.207,0.051 l -0.535,-0.141 c -0.223,-0.055 -0.246,-0.066 -0.227,-0.152 0.004,-0.024 0.004,-0.032 -0.011,-0.032 -0.012,-0.003 -0.02,0 -0.028,0.028 -0.015,0.055 -0.035,0.14 -0.043,0.172 -0.027,0.113 -0.058,0.203 -0.113,0.402 -0.016,0.07 -0.012,0.086 0.019,0.102 0.036,0.019 0.157,0.062 0.172,0.066 0.02,0.008 0.032,0.004 0.036,-0.008 0.003,-0.019 -0.012,-0.023 -0.024,-0.031 -0.09,-0.039 -0.117,-0.074 -0.082,-0.223 0.047,-0.172 0.063,-0.183 0.254,-0.136 l 0.535,0.14 c 0.172,0.043 0.176,0.055 0.152,0.145 -0.003,0.023 0,0.035 0.012,0.035 0.012,0.008 0.02,-0.004 0.028,-0.027 0.015,-0.055 0.039,-0.157 0.046,-0.188 0.008,-0.039 0.036,-0.125 0.051,-0.191 0.012,-0.024 0.004,-0.036 -0.012,-0.039 -0.007,-0.004 -0.015,0.003 -0.023,0.027"
         style="fill:#ffffff;fill-opacity:1;fill-rule:nonzero;stroke:none"
         transform="scale(1.3333333)" />
      <path
         id="path201-7-0-9-2"
         d="m 347.785,40.379 c -0.031,0.074 -0.055,0.074 -0.101,0.055 -0.047,-0.012 -0.082,-0.032 -0.282,-0.11 l -0.23,-0.094 c -0.121,-0.05 -0.227,-0.093 -0.277,-0.121 -0.055,-0.031 -0.055,-0.05 -0.032,-0.105 0.004,-0.016 0.004,-0.027 -0.008,-0.031 -0.011,-0.008 -0.023,0 -0.035,0.023 -0.019,0.051 -0.047,0.137 -0.062,0.168 -0.012,0.035 -0.051,0.117 -0.086,0.203 -0.008,0.02 -0.004,0.035 0.008,0.043 0.011,0.004 0.023,-0.008 0.027,-0.023 0.031,-0.074 0.055,-0.106 0.106,-0.086 0.062,0.015 0.164,0.058 0.289,0.109 l 0.23,0.09 c 0.199,0.082 0.234,0.094 0.273,0.113 0.055,0.032 0.063,0.055 0.04,0.114 -0.004,0.011 -0.008,0.027 0.007,0.035 0.012,0.004 0.024,-0.004 0.032,-0.028 0.019,-0.05 0.046,-0.129 0.062,-0.16 0.016,-0.039 0.051,-0.121 0.074,-0.172 0.008,-0.027 0.008,-0.043 -0.004,-0.047 -0.015,-0.007 -0.023,0.008 -0.031,0.024"
         style="fill:#ffffff;fill-opacity:1;fill-rule:nonzero;stroke:none"
         transform="scale(1.3333333)" />
      <path
         id="path202-2-0-7-6"
         d="m 347.047,40.926 c -0.348,-0.207 -0.66,-0.024 -0.84,0.285 -0.047,0.078 -0.094,0.176 -0.109,0.238 0,0.028 0,0.043 0.023,0.059 0.035,0.039 0.133,0.117 0.149,0.125 0.011,0.008 0.023,0.008 0.035,-0.004 0.004,-0.012 0.004,-0.016 -0.016,-0.039 -0.086,-0.09 -0.094,-0.168 0.004,-0.344 0.133,-0.215 0.371,-0.297 0.656,-0.129 0.223,0.141 0.321,0.332 0.184,0.563 -0.082,0.144 -0.227,0.261 -0.356,0.183 -0.019,-0.008 -0.035,-0.008 -0.043,0 -0.007,0.016 0,0.032 0.02,0.043 0.023,0.02 0.09,0.059 0.133,0.082 0.039,0.028 0.051,0.039 0.062,0.043 0.012,0.004 0.024,0.004 0.035,-0.008 0.043,-0.066 0.125,-0.136 0.211,-0.281 0.168,-0.293 0.149,-0.644 -0.148,-0.816"
         style="fill:#ffffff;fill-opacity:1;fill-rule:nonzero;stroke:none"
         transform="scale(1.3333333)" />
      <path
         id="path203-1-8-2-4"
         d="m 346.254,42.551 -0.004,-0.004 -0.406,-0.145 0.199,-0.23 0.207,0.371 c 0.004,0.004 0.004,0.008 0.004,0.008 z m -0.25,-0.696 c -0.051,-0.097 -0.051,-0.136 0.004,-0.199 0.004,-0.015 0.012,-0.027 0,-0.035 -0.008,-0.008 -0.02,-0.008 -0.039,0.012 -0.047,0.062 -0.094,0.121 -0.106,0.133 -0.027,0.035 -0.07,0.082 -0.101,0.113 -0.008,0.016 -0.016,0.027 -0.004,0.035 0.012,0.016 0.019,0.012 0.043,-0.016 0.035,-0.035 0.051,-0.035 0.062,-0.023 0.016,0.012 0.035,0.035 0.055,0.074 l 0.074,0.137 c 0.004,0.004 0,0.008 -0.004,0.016 l -0.226,0.261 c -0.004,0.004 -0.008,0.004 -0.008,0.004 l -0.25,-0.082 c -0.012,-0.004 0.031,-0.062 0.031,-0.07 0.008,-0.012 0.012,-0.024 0.004,-0.031 -0.012,-0.008 -0.031,0 -0.055,0.027 -0.015,0.019 -0.066,0.09 -0.097,0.121 -0.024,0.031 -0.067,0.074 -0.09,0.106 -0.039,0.042 -0.039,0.058 -0.031,0.066 0.011,0.008 0.019,0.004 0.031,-0.008 0.043,-0.051 0.129,-0.031 0.207,-0.008 0.226,0.071 0.812,0.262 0.894,0.285 0.04,0.012 0.055,0.012 0.067,0 0.008,-0.007 0.004,-0.031 -0.016,-0.074 z"
         style="fill:#ffffff;fill-opacity:1;fill-rule:nonzero;stroke:none"
         transform="scale(1.3333333)" />
      <path
         id="path204-3-6-5-6"
         d="m 336.586,44.313 c -0.168,0.269 -0.352,0.304 -0.609,0.152 -0.161,-0.09 -0.153,-0.129 -0.059,-0.285 l 0.336,-0.563 c 0.023,-0.039 0.031,-0.047 0.117,0.004 0.27,0.156 0.367,0.422 0.215,0.692 m -0.152,-0.747 c -0.075,-0.043 -0.157,-0.089 -0.196,-0.109 -0.031,-0.019 -0.105,-0.074 -0.172,-0.109 -0.023,-0.016 -0.039,-0.012 -0.043,-0.004 -0.007,0.011 -0.003,0.019 0.016,0.035 0.07,0.039 0.086,0.07 0.059,0.121 -0.028,0.039 -0.043,0.07 -0.153,0.258 l -0.129,0.211 c -0.179,0.304 -0.199,0.316 -0.253,0.281 -0.028,-0.016 -0.043,-0.02 -0.051,-0.004 -0.008,0.008 0,0.024 0.019,0.035 0.047,0.028 0.129,0.071 0.157,0.086 0.062,0.035 0.16,0.117 0.25,0.172 0.308,0.184 0.648,0.168 0.843,-0.16 0.192,-0.328 0.016,-0.598 -0.347,-0.813"
         style="fill:#ffffff;fill-opacity:1;fill-rule:nonzero;stroke:none"
         transform="scale(1.3333333)" />
      <path
         id="path205-2-5-3-0"
         d="m 337.941,44.277 c -0.027,-0.011 -0.293,-0.109 -0.336,-0.125 -0.035,-0.011 -0.117,-0.047 -0.187,-0.074 -0.027,-0.008 -0.043,-0.008 -0.047,0.008 0,0.012 0.004,0.019 0.024,0.027 0.078,0.028 0.097,0.055 0.078,0.11 -0.016,0.043 -0.028,0.078 -0.102,0.281 l -0.086,0.238 c -0.023,0.063 -0.051,0.129 -0.07,0.184 -0.055,0.152 -0.07,0.156 -0.145,0.133 -0.015,-0.004 -0.027,-0.004 -0.035,0.007 -0.004,0.012 0.004,0.02 0.024,0.036 0.054,0.015 0.14,0.043 0.171,0.054 0.141,0.055 0.27,0.11 0.399,0.157 0.031,0.007 0.043,0.003 0.062,-0.02 0.016,-0.027 0.063,-0.113 0.071,-0.145 0.008,-0.015 0.011,-0.031 -0.004,-0.035 -0.02,-0.008 -0.024,0.004 -0.031,0.02 -0.028,0.047 -0.055,0.066 -0.09,0.07 -0.039,0 -0.141,-0.039 -0.176,-0.047 -0.094,-0.039 -0.106,-0.043 -0.074,-0.133 0.015,-0.039 0.062,-0.156 0.117,-0.308 0,-0.004 0,-0.008 0.008,-0.008 0.011,0.008 0.156,0.063 0.179,0.078 0.063,0.02 0.055,0.078 0.043,0.117 -0.004,0.008 -0.004,0.02 0.008,0.024 0.02,0.012 0.028,-0.012 0.031,-0.02 0.028,-0.078 0.079,-0.164 0.086,-0.183 0.004,-0.012 -0.004,-0.02 -0.007,-0.02 -0.012,-0.004 -0.024,0.004 -0.043,0.008 -0.016,0.004 -0.055,0.008 -0.129,-0.012 -0.055,-0.027 -0.121,-0.051 -0.141,-0.058 -0.008,-0.004 -0.008,-0.004 -0.008,-0.012 l 0.133,-0.356 c 0.004,-0.007 0.004,-0.007 0.008,-0.007 0.258,0.097 0.266,0.109 0.242,0.199 0,0.012 -0.008,0.023 0.008,0.031 0.016,0.004 0.027,0 0.031,-0.012 0.039,-0.109 0.07,-0.14 0.078,-0.168 0.004,-0.011 0.004,-0.023 -0.004,-0.027 -0.011,0 -0.039,0.004 -0.086,-0.012"
         style="fill:#ffffff;fill-opacity:1;fill-rule:nonzero;stroke:none"
         transform="scale(1.3333333)" />
      <path
         id="path206-7-7-4-8"
         d="m 339.941,44.66 c -0.078,-0.012 -0.175,-0.062 -0.343,-0.078 -0.336,-0.031 -0.645,0.133 -0.68,0.477 -0.043,0.402 0.262,0.609 0.613,0.644 0.09,0.008 0.199,0.012 0.258,-0.004 0.027,-0.008 0.039,-0.019 0.047,-0.043 0.019,-0.047 0.051,-0.168 0.051,-0.183 0.004,-0.02 -0.004,-0.032 -0.016,-0.032 -0.016,0 -0.019,0.004 -0.031,0.032 -0.043,0.113 -0.113,0.152 -0.317,0.132 -0.246,-0.023 -0.418,-0.207 -0.39,-0.539 0.039,-0.265 0.168,-0.429 0.437,-0.402 0.168,0.016 0.332,0.094 0.313,0.246 0,0.028 0.008,0.039 0.019,0.039 0.016,0.004 0.024,-0.008 0.028,-0.035 0.008,-0.031 0.011,-0.105 0.019,-0.152 0.012,-0.047 0.016,-0.063 0.02,-0.078 0,-0.012 -0.008,-0.02 -0.028,-0.024"
         style="fill:#ffffff;fill-opacity:1;fill-rule:nonzero;stroke:none"
         transform="scale(1.3333333)" />
      <path
         id="path207-0-8-3-5"
         d="m 341.668,45.555 c -0.082,0.008 -0.109,0.004 -0.129,-0.059 -0.012,-0.062 -0.023,-0.172 -0.039,-0.301 l -0.027,-0.246 c -0.024,-0.211 -0.028,-0.25 -0.028,-0.301 -0.004,-0.062 0.016,-0.078 0.078,-0.085 0.02,-0.004 0.032,-0.012 0.028,-0.024 0,-0.012 -0.012,-0.019 -0.035,-0.016 -0.063,0.008 -0.149,0.02 -0.184,0.024 -0.039,0.004 -0.129,0.008 -0.203,0.019 -0.027,0.004 -0.039,0.012 -0.039,0.02 0.004,0.016 0.019,0.023 0.035,0.019 0.074,-0.007 0.113,-0.003 0.121,0.067 0.004,0.043 0.012,0.082 0.039,0.293 v 0.066 c 0,0.004 0,0.004 0,0.004 l -0.539,0.059 c -0.004,0 -0.004,0 -0.004,-0.008 l -0.008,-0.059 c -0.023,-0.211 -0.027,-0.25 -0.027,-0.293 -0.004,-0.066 0.012,-0.078 0.074,-0.089 0.024,-0.004 0.032,-0.012 0.032,-0.028 0,-0.012 -0.012,-0.015 -0.04,-0.012 -0.054,0.004 -0.144,0.016 -0.175,0.024 -0.043,0.004 -0.133,0.008 -0.203,0.016 -0.032,0.003 -0.04,0.015 -0.04,0.027 0,0.012 0.012,0.023 0.036,0.016 0.074,-0.008 0.105,0.007 0.117,0.062 0.008,0.043 0.012,0.082 0.035,0.297 l 0.027,0.25 c 0.016,0.129 0.028,0.238 0.024,0.297 0,0.062 -0.008,0.078 -0.074,0.086 -0.02,0.004 -0.032,0.008 -0.032,0.023 0.004,0.012 0.016,0.016 0.039,0.016 0.059,-0.004 0.145,-0.02 0.18,-0.024 0.039,-0.004 0.129,-0.011 0.223,-0.019 0.023,-0.004 0.035,-0.012 0.031,-0.028 -0.004,-0.011 -0.016,-0.015 -0.031,-0.011 -0.082,0.004 -0.114,0.004 -0.129,-0.063 -0.012,-0.058 -0.024,-0.168 -0.039,-0.297 l -0.012,-0.086 c 0,-0.003 0.004,-0.007 0.008,-0.007 l 0.535,-0.063 c 0,0 0.004,0.004 0.004,0.004 l 0.012,0.09 c 0.015,0.129 0.023,0.238 0.019,0.301 0,0.058 0,0.078 -0.074,0.086 -0.012,0 -0.024,0.003 -0.024,0.019 0,0.012 0.012,0.02 0.04,0.02 0.054,-0.008 0.14,-0.02 0.179,-0.028 0.035,-0.004 0.125,-0.008 0.219,-0.019 0.023,0 0.035,-0.012 0.031,-0.024 0,-0.015 -0.015,-0.015 -0.031,-0.015"
         style="fill:#ffffff;fill-opacity:1;fill-rule:nonzero;stroke:none"
         transform="scale(1.3333333)" />
      <path
         id="path208-5-8-7-1"
         d="m 342.688,45.277 c -0.075,0.024 -0.118,0.024 -0.133,-0.031 -0.024,-0.055 -0.055,-0.164 -0.094,-0.293 l -0.07,-0.238 c -0.063,-0.207 -0.075,-0.246 -0.082,-0.285 -0.012,-0.063 0,-0.082 0.062,-0.102 0.012,-0.004 0.027,-0.012 0.024,-0.027 -0.004,-0.012 -0.016,-0.012 -0.04,-0.008 -0.058,0.016 -0.136,0.043 -0.167,0.055 -0.04,0.007 -0.125,0.031 -0.18,0.047 -0.028,0.007 -0.035,0.019 -0.035,0.031 0.004,0.015 0.023,0.015 0.035,0.008 0.078,-0.02 0.09,0 0.109,0.05 0.016,0.043 0.028,0.079 0.09,0.286 l 0.07,0.234 c 0.039,0.133 0.071,0.242 0.078,0.297 0.012,0.062 -0.003,0.078 -0.062,0.094 -0.016,0.003 -0.027,0.011 -0.023,0.027 0.003,0.012 0.015,0.019 0.039,0.012 0.054,-0.02 0.14,-0.047 0.171,-0.059 0.036,-0.012 0.125,-0.031 0.215,-0.055 0.024,-0.007 0.032,-0.019 0.028,-0.035 -0.004,-0.012 -0.02,-0.012 -0.035,-0.008"
         style="fill:#ffffff;fill-opacity:1;fill-rule:nonzero;stroke:none"
         transform="scale(1.3333333)" />
      <path
         id="path209-3-2-7-9"
         d="m 343.863,44.598 c -0.008,-0.02 -0.019,-0.028 -0.031,-0.02 -0.016,0.004 -0.012,0.02 -0.004,0.031 0.024,0.098 0.012,0.145 -0.125,0.211 -0.164,0.075 -0.187,0.063 -0.269,-0.113 l -0.231,-0.504 c -0.074,-0.164 -0.066,-0.176 0.02,-0.215 0.023,-0.008 0.027,-0.015 0.019,-0.027 0,-0.012 -0.015,-0.016 -0.039,-0.004 -0.051,0.023 -0.144,0.07 -0.176,0.082 -0.035,0.02 -0.117,0.051 -0.179,0.078 -0.024,0.008 -0.032,0.024 -0.028,0.031 0.008,0.012 0.02,0.016 0.039,0.008 0.094,-0.043 0.102,-0.023 0.172,0.125 l 0.227,0.504 c 0.097,0.211 0.105,0.242 0.023,0.278 -0.015,0.007 -0.027,0.015 -0.019,0.031 0.008,0.011 0.019,0.011 0.043,0 0.05,-0.024 0.129,-0.063 0.16,-0.074 0.109,-0.047 0.199,-0.079 0.387,-0.165 0.066,-0.031 0.074,-0.046 0.066,-0.078 -0.008,-0.043 -0.047,-0.168 -0.055,-0.179"
         style="fill:#ffffff;fill-opacity:1;fill-rule:nonzero;stroke:none"
         transform="scale(1.3333333)" />
      <path
         id="path210-1-4-7-9"
         d="m 344.891,43.984 c -0.008,-0.015 -0.02,-0.027 -0.032,-0.019 -0.015,0.012 -0.011,0.019 -0.004,0.039 0.024,0.051 0.024,0.078 0.004,0.113 -0.023,0.031 -0.109,0.094 -0.14,0.113 -0.086,0.055 -0.098,0.059 -0.153,-0.019 -0.023,-0.035 -0.089,-0.141 -0.179,-0.273 0,0 0,-0.008 0.004,-0.008 0.007,-0.008 0.14,-0.09 0.164,-0.106 0.054,-0.035 0.097,0.004 0.121,0.039 0.004,0.004 0.015,0.012 0.027,0.004 0.016,-0.008 0.004,-0.027 0,-0.039 -0.043,-0.062 -0.086,-0.156 -0.098,-0.172 -0.007,-0.011 -0.015,-0.011 -0.023,-0.008 -0.008,0.008 -0.008,0.02 -0.016,0.043 -0.003,0.012 -0.023,0.051 -0.089,0.09 -0.047,0.032 -0.11,0.071 -0.125,0.082 -0.008,0.004 -0.012,0.004 -0.016,-0.004 l -0.207,-0.312 c -0.004,-0.004 -0.004,-0.008 0,-0.012 0.23,-0.152 0.242,-0.148 0.301,-0.078 0.011,0.008 0.015,0.02 0.031,0.012 0.016,-0.008 0.016,-0.02 0.008,-0.031 -0.063,-0.098 -0.071,-0.141 -0.09,-0.165 -0.004,-0.007 -0.012,-0.015 -0.024,-0.007 -0.007,0.007 -0.019,0.031 -0.062,0.058 -0.02,0.016 -0.258,0.172 -0.297,0.196 -0.031,0.023 -0.109,0.07 -0.172,0.113 -0.019,0.012 -0.031,0.023 -0.019,0.035 0.008,0.012 0.015,0.012 0.035,0 0.066,-0.043 0.101,-0.047 0.137,0.004 0.023,0.039 0.046,0.07 0.164,0.246 l 0.136,0.207 c 0.043,0.063 0.078,0.121 0.11,0.168 0.09,0.137 0.086,0.152 0.019,0.195 -0.015,0.012 -0.019,0.02 -0.011,0.032 0.007,0.011 0.019,0.011 0.039,0 0.05,-0.032 0.121,-0.086 0.148,-0.102 0.125,-0.086 0.246,-0.152 0.363,-0.23 0.024,-0.02 0.028,-0.032 0.02,-0.063 -0.016,-0.031 -0.055,-0.117 -0.074,-0.141"
         style="fill:#ffffff;fill-opacity:1;fill-rule:nonzero;stroke:none"
         transform="scale(1.3333333)" />
      <path
         id="path211-6-1-7-3"
         d="m 329.59,27.039 h 0.293 c 0.312,0 0.508,-0.168 0.508,-0.426 0,-0.293 -0.207,-0.422 -0.516,-0.422 -0.141,0 -0.238,0.012 -0.285,0.028 z m -0.289,-1.023 c 0.148,-0.032 0.355,-0.051 0.554,-0.051 0.309,0 0.512,0.058 0.649,0.183 0.113,0.106 0.176,0.258 0.176,0.43 0,0.297 -0.188,0.492 -0.422,0.574 v 0.008 c 0.176,0.063 0.277,0.219 0.332,0.453 0.07,0.313 0.125,0.528 0.172,0.617 h -0.301 c -0.035,-0.066 -0.086,-0.257 -0.148,-0.535 -0.071,-0.308 -0.188,-0.425 -0.45,-0.437 h -0.273 v 0.972 h -0.289 z"
         style="fill:#ffffff;fill-opacity:1;fill-rule:nonzero;stroke:none"
         transform="scale(1.3333333)" />
      <path
         id="path212-5-7-8-4"
         d="m 331.813,-27.1 c 0,-1.024 -0.836,-1.852 -1.856,-1.852 -1.027,0 -1.855,0.828 -1.855,1.852 0,1.028 0.828,1.856 1.855,1.856 1.02,0 1.856,-0.828 1.856,-1.856 z"
         style="fill:#ffffff;stroke:#002439;stroke-width:0.304823;stroke-linecap:butt;stroke-linejoin:miter;stroke-miterlimit:10;stroke-dasharray:none;stroke-opacity:1"
         transform="scale(1.3333333,-1.3328387)" />
      <text
         xml:space="preserve"
         style="font-style:normal;font-variant:normal;font-weight:normal;font-stretch:normal;font-size:10.7802px;font-family:'Myriad Pro';-inkscape-font-specification:'Myriad Pro, Normal';font-variant-ligatures:normal;font-variant-caps:normal;font-variant-numeric:normal;font-variant-east-asian:normal;opacity:0.977839;fill:#ffffff;fill-opacity:1;stroke-width:18.7144;paint-order:stroke markers fill"
         x="478.87274"
         y="38.595776"
         id="text8-1-2-2"><tspan
           sodipodi:role="line"
           id="tspan102-0-9-5"
           x="478.87274"
           y="38.595776">Direccin de</tspan></text>
      <text
         xml:space="preserve"
         style="font-style:normal;font-variant:normal;font-weight:normal;font-stretch:normal;font-size:10.7802px;font-family:'Myriad Pro';-inkscape-font-specification:'Myriad Pro, Normal';font-variant-ligatures:normal;font-variant-caps:normal;font-variant-numeric:normal;font-variant-east-asian:normal;opacity:0.977839;fill:#ffffff;fill-opacity:1;stroke-width:18.7144;paint-order:stroke markers fill"
         x="478.87274"
         y="51.254524"
         id="text8-6-5-8-5"><tspan
           sodipodi:role="line"
           id="tspan103-3-8-1"
           x="478.87274"
           y="51.254524">Desarrollo</tspan></text>
      <text
         xml:space="preserve"
         style="font-style:normal;font-variant:normal;font-weight:normal;font-stretch:normal;font-size:10.7802px;font-family:'Myriad Pro';-inkscape-font-specification:'Myriad Pro, Normal';font-variant-ligatures:normal;font-variant-caps:normal;font-variant-numeric:normal;font-variant-east-asian:normal;opacity:0.977839;fill:#ffffff;fill-opacity:1;stroke-width:18.7144;paint-order:stroke markers fill"
         x="478.54318"
         y="63.913277"
         id="text8-6-7-7-0-4"><tspan
           sodipodi:role="line"
           id="tspan290-3-2-0"
           x="478.54318"
           y="63.913277">Acadmico</tspan></text>
    </g>
  </g>
</svg>
